<svg xmlns="http://www.w3.org/2000/svg" viewBox="0 0 1600 1000" width="1600" height="1000" preserveAspectRatio="xMidYMid slice">
  <g>
    
    <path d="M 1232.7 -58.2 L 1233.9 -54.9 L 1235.2 -51.8 L 1236.8 -48.1 L 1238.7 -44.0 L 1240.9 -39.4 L 1243.3 -34.4 L 1246.0 -29.0 L 1248.9 -23.3 L 1252.0 -17.2 L 1255.2 -10.9 L 1258.7 -4.3 L 1262.2 2.6 L 1265.9 9.8 L 1269.7 17.2 L 1273.7 24.8 L 1277.6 32.6 L 1281.7 40.6 L 1285.8 48.8 L 1289.9 57.2 L 1294.0 65.7 L 1298.2 74.5 L 1302.3 83.3 L 1306.4 92.3 L 1310.4 101.5 L 1314.4 110.8 L 1318.3 120.2 L 1322.1 129.7 L 1325.8 139.3 L 1329.4 149.1 L 1332.8 158.9 L 1336.1 168.8 L 1339.2 178.8 L 1342.1 188.9 L 1344.8 199.0 L 1347.3 209.3 L 1349.5 219.5 L 1351.5 229.9 L 1353.2 240.3 L 1354.6 250.8 L 1355.6 261.3 L 1356.3 271.9 L 1356.6 282.6 L 1356.4 293.2 L 1355.8 304.0 L 1354.7 315.0 L 1353.1 326.0 L 1350.9 336.8 L 1348.3 347.6 L 1345.3 358.2 L 1341.9 368.7 L 1338.2 379.0 L 1334.2 389.3 L 1330.0 399.5 L 1325.5 409.7 L 1320.7 419.7 L 1315.8 429.7 L 1310.7 439.7 L 1305.4 449.6 L 1300.1 459.4 L 1294.6 469.2 L 1289.0 478.9 L 1283.4 488.6 L 1277.7 498.3 L 1272.0 507.8 L 1266.2 517.4 L 1260.5 526.8 L 1254.9 536.2 L 1249.3 545.6 L 1243.8 554.8 L 1238.3 564.0 L 1233.1 573.1 L 1227.9 582.1 L 1222.9 591.0 L 1218.1 599.8 L 1213.5 608.4 L 1209.1 617.0 L 1205.0 625.4 L 1201.1 633.6 L 1197.5 641.7 L 1194.2 649.6 L 1191.2 657.2 L 1188.6 664.7 L 1186.3 671.9 L 1184.3 678.9 L 1182.7 685.6 L 1181.4 692.0 L 1180.4 698.1 L 1179.8 704.0 L 1179.5 710.2 L 1179.4 716.6 L 1179.6 723.3 L 1180.1 730.2 L 1180.8 737.3 L 1181.7 744.6 L 1182.9 752.1 L 1184.4 759.7 L 1186.1 767.4 L 1188.0 775.3 L 1190.1 783.3 L 1192.4 791.3 L 1195.0 799.4 L 1197.7 807.6 L 1200.5 815.8 L 1203.6 824.1 L 1206.7 832.3 L 1210.0 840.6 L 1213.5 848.8 L 1217.0 857.0 L 1220.6 865.2 L 1224.3 873.3 L 1228.0 881.4 L 1231.8 889.4 L 1235.6 897.3 L 1239.5 905.1 L 1243.3 912.8 L 1247.1 920.4 L 1250.9 927.9 L 1254.7 935.2 L 1258.4 942.4 L 1262.1 949.5 L 1265.7 956.4 L 1269.2 963.1 L 1272.5 969.7 L 1275.8 976.1 L 1279.0 982.4 L 1282.0 988.4 L 1284.9 994.4 L 1287.7 1000.2 L 1290.2 1005.9 L 1292.7 1011.5 L 1294.9 1017.1 L 1296.7 1021.8" fill="none" stroke="#011C42" stroke-width="1" stroke-linecap="round" opacity="0.22" stroke-dasharray="1.5 10"/>
    <path d="M 1155.9 -29.5 L 1157.6 -25.1 L 1159.6 -20.0 L 1161.9 -14.8 L 1164.3 -9.5 L 1166.9 -3.9 L 1169.7 1.8 L 1172.7 7.8 L 1175.8 13.9 L 1179.0 20.3 L 1182.4 26.8 L 1185.9 33.5 L 1189.4 40.4 L 1193.1 47.5 L 1196.9 54.7 L 1200.7 62.1 L 1204.5 69.6 L 1208.4 77.3 L 1212.3 85.1 L 1216.2 93.1 L 1220.0 101.1 L 1223.9 109.3 L 1227.7 117.5 L 1231.5 125.8 L 1235.2 134.2 L 1238.8 142.6 L 1242.3 151.1 L 1245.7 159.7 L 1249.0 168.2 L 1252.2 176.8 L 1255.2 185.3 L 1258.0 193.9 L 1260.6 202.4 L 1263.1 210.9 L 1265.3 219.3 L 1267.4 227.6 L 1269.2 235.9 L 1270.7 244.1 L 1272.0 252.2 L 1273.1 260.2 L 1273.9 268.0 L 1274.4 275.7 L 1274.6 283.2 L 1274.5 290.6 L 1274.1 297.7 L 1273.4 304.7 L 1272.3 311.8 L 1270.8 319.2 L 1269.0 326.7 L 1266.8 334.4 L 1264.3 342.4 L 1261.4 350.4 L 1258.2 358.7 L 1254.7 367.0 L 1250.9 375.6 L 1246.8 384.2 L 1242.5 392.9 L 1238.0 401.7 L 1233.3 410.7 L 1228.3 419.7 L 1223.2 428.8 L 1218.0 437.9 L 1212.6 447.1 L 1207.2 456.4 L 1201.6 465.7 L 1196.0 475.1 L 1190.3 484.5 L 1184.6 494.0 L 1178.9 503.5 L 1173.2 513.0 L 1167.6 522.5 L 1162.0 532.1 L 1156.6 541.6 L 1151.2 551.2 L 1145.9 560.9 L 1140.8 570.5 L 1135.9 580.1 L 1131.1 589.8 L 1126.5 599.5 L 1122.2 609.2 L 1118.2 618.9 L 1114.4 628.6 L 1110.9 638.4 L 1107.8 648.2 L 1105.0 658.0 L 1102.6 667.9 L 1100.6 677.8 L 1099.1 687.8 L 1098.1 697.7 L 1097.6 707.5 L 1097.4 717.3 L 1097.7 727.1 L 1098.3 736.9 L 1099.3 746.7 L 1100.6 756.5 L 1102.2 766.3 L 1104.0 776.1 L 1106.2 785.8 L 1108.5 795.5 L 1111.1 805.2 L 1113.9 814.9 L 1116.9 824.5 L 1120.0 834.0 L 1123.3 843.5 L 1126.8 852.9 L 1130.4 862.3 L 1134.1 871.5 L 1137.9 880.7 L 1141.8 889.7 L 1145.7 898.7 L 1149.7 907.5 L 1153.8 916.2 L 1157.8 924.8 L 1161.9 933.2 L 1166.0 941.5 L 1170.0 949.6 L 1174.0 957.5 L 1177.9 965.2 L 1181.8 972.8 L 1185.6 980.1 L 1189.3 987.2 L 1192.9 994.1 L 1196.3 1000.8 L 1199.6 1007.2 L 1202.7 1013.3 L 1205.7 1019.1 L 1208.4 1024.7 L 1211.0 1029.9 L 1213.3 1034.7 L 1215.3 1039.2 L 1217.1 1043.3 L 1218.6 1046.9 L 1219.9 1050.5" fill="none" stroke="#011C42" stroke-width="1.1" stroke-linecap="round" opacity="0.3" stroke-dasharray="1.5 9"/>
    <path d="M 1184.0 -40.0 L 1185.5 -36.0 L 1187.3 -31.6 L 1189.3 -27.0 L 1191.5 -22.1 L 1194.0 -16.9 L 1196.6 -11.4 L 1199.5 -5.7 L 1202.5 0.3 L 1205.7 6.5 L 1209.0 13.0 L 1212.5 19.7 L 1216.1 26.6 L 1219.8 33.7 L 1223.5 41.0 L 1227.4 48.4 L 1231.3 56.1 L 1235.2 63.9 L 1239.2 71.8 L 1243.1 79.9 L 1247.1 88.2 L 1251.1 96.5 L 1255.0 105.0 L 1258.9 113.6 L 1262.7 122.2 L 1266.5 131.0 L 1270.1 139.8 L 1273.7 148.7 L 1277.1 157.6 L 1280.4 166.6 L 1283.6 175.6 L 1286.6 184.7 L 1289.4 193.7 L 1292.0 202.8 L 1294.4 211.9 L 1296.6 220.9 L 1298.6 229.9 L 1300.3 238.9 L 1301.7 247.9 L 1302.9 256.7 L 1303.8 265.6 L 1304.3 274.3 L 1304.6 283.0 L 1304.5 291.5 L 1304.0 300.0 L 1303.1 308.5 L 1301.8 317.0 L 1300.1 325.6 L 1298.0 334.3 L 1295.5 343.1 L 1292.7 352.0 L 1289.5 360.9 L 1286.0 369.9 L 1282.2 378.9 L 1278.2 388.0 L 1273.9 397.2 L 1269.3 406.4 L 1264.6 415.6 L 1259.7 424.9 L 1254.6 434.2 L 1249.3 443.6 L 1244.0 452.9 L 1238.5 462.3 L 1233.0 471.7 L 1227.3 481.1 L 1221.7 490.6 L 1216.0 500.0 L 1210.3 509.4 L 1204.7 518.9 L 1199.0 528.3 L 1193.5 537.7 L 1188.0 547.1 L 1182.7 556.4 L 1177.4 565.8 L 1172.3 575.1 L 1167.4 584.4 L 1162.7 593.6 L 1158.1 602.8 L 1153.8 612.0 L 1149.8 621.1 L 1146.0 630.1 L 1142.5 639.1 L 1139.3 648.0 L 1136.5 656.9 L 1134.0 665.7 L 1131.9 674.4 L 1130.2 683.0 L 1128.9 691.5 L 1128.0 700.0 L 1127.5 708.5 L 1127.4 717.0 L 1127.7 725.7 L 1128.2 734.4 L 1129.1 743.3 L 1130.3 752.1 L 1131.7 761.1 L 1133.4 770.1 L 1135.4 779.1 L 1137.6 788.1 L 1140.0 797.2 L 1142.6 806.3 L 1145.4 815.3 L 1148.4 824.4 L 1151.6 833.4 L 1154.9 842.4 L 1158.3 851.3 L 1161.9 860.2 L 1165.5 869.0 L 1169.3 877.8 L 1173.1 886.4 L 1177.0 895.0 L 1180.9 903.5 L 1184.9 911.8 L 1188.9 920.1 L 1192.8 928.2 L 1196.8 936.1 L 1200.7 943.9 L 1204.6 951.6 L 1208.5 959.0 L 1212.2 966.3 L 1215.9 973.4 L 1219.5 980.3 L 1223.0 987.0 L 1226.3 993.5 L 1229.5 999.7 L 1232.5 1005.7 L 1235.4 1011.4 L 1238.0 1016.9 L 1240.5 1022.1 L 1242.7 1027.0 L 1244.7 1031.6 L 1246.5 1036.0 L 1248.0 1040.0" fill="none" stroke="#123763" stroke-width="2.6" stroke-linecap="round" stroke-linejoin="round" opacity="0.72"/>
    
    <circle cx="1184.0" cy="4" r="3" fill="#123763" opacity="0.7"/>
    <circle cx="1248.0" cy="996" r="3" fill="#123763" opacity="0.7"/>
    <circle cx="1239.2" cy="71.8" r="3.1" fill="#123763" opacity="0.8"/>
    <circle cx="1128.9" cy="691.5" r="3.1" fill="#123763" opacity="0.8"/>
    <circle cx="1200.7" cy="943.9" r="3.1" fill="#123763" opacity="0.8"/>
    
    <circle cx="1158.1" cy="602.8" r="2.6" fill="#123763" opacity="0.7"/>
    <g transform="translate(1216.0 500.0)">
      <circle r="22.4" fill="none" stroke="#123763" stroke-width="2.24" opacity="0.9"/>
      <path d="M -8.3 -17.6 L -8.3 17.6" stroke="#123763" stroke-width="3.8" stroke-linecap="round"/><path d="M -8.3 -16.0 L 14.7 -9.0 L -8.3 -1.9 Z" fill="#123763"/>
    </g>
  </g>
</svg>
