<svg xmlns="http://www.w3.org/2000/svg" viewBox="0 0 1600 1000" width="1600" height="1000" preserveAspectRatio="xMidYMid slice">
  <g>
    
    <path d="M 1203.5 -66.7 L 1205.2 -63.5 L 1206.8 -60.5 L 1208.9 -56.9 L 1211.4 -52.8 L 1214.3 -48.3 L 1217.6 -43.3 L 1221.1 -37.9 L 1225.0 -32.2 L 1229.1 -26.2 L 1233.4 -19.8 L 1238.0 -13.2 L 1242.8 -6.3 L 1247.7 0.8 L 1252.7 8.2 L 1257.9 15.8 L 1263.3 23.6 L 1268.7 31.6 L 1274.1 39.9 L 1279.6 48.3 L 1285.2 56.8 L 1290.8 65.6 L 1296.3 74.5 L 1301.9 83.5 L 1307.4 92.7 L 1312.8 102.1 L 1318.2 111.5 L 1323.4 121.1 L 1328.6 130.8 L 1333.6 140.6 L 1338.5 150.6 L 1343.2 160.6 L 1347.7 170.8 L 1352.0 181.0 L 1356.1 191.3 L 1359.9 201.8 L 1363.4 212.3 L 1366.6 223.0 L 1369.5 233.7 L 1372.0 244.6 L 1374.2 255.6 L 1375.9 266.7 L 1377.1 277.9 L 1377.8 289.2 L 1378.0 300.8 L 1377.5 312.6 L 1376.3 324.4 L 1374.5 336.0 L 1372.1 347.4 L 1369.3 358.6 L 1366.0 369.7 L 1362.3 380.5 L 1358.2 391.3 L 1353.8 401.9 L 1349.2 412.3 L 1344.2 422.7 L 1339.1 432.9 L 1333.8 443.1 L 1328.2 453.1 L 1322.6 463.1 L 1316.8 473.0 L 1311.0 482.9 L 1305.0 492.6 L 1299.0 502.3 L 1293.0 511.9 L 1287.0 521.5 L 1281.1 530.9 L 1275.1 540.3 L 1269.3 549.6 L 1263.5 558.9 L 1257.9 568.0 L 1252.4 577.0 L 1247.1 585.9 L 1242.0 594.7 L 1237.1 603.3 L 1232.5 611.8 L 1228.1 620.1 L 1224.0 628.3 L 1220.2 636.2 L 1216.7 644.0 L 1213.6 651.5 L 1210.9 658.7 L 1208.5 665.7 L 1206.5 672.4 L 1204.9 678.7 L 1203.6 684.8 L 1202.7 690.4 L 1202.2 695.7 L 1202.0 700.8 L 1202.1 706.2 L 1202.5 712.0 L 1203.1 718.1 L 1204.1 724.5 L 1205.4 731.1 L 1207.0 738.0 L 1208.9 745.2 L 1211.1 752.5 L 1213.7 760.0 L 1216.4 767.6 L 1219.5 775.4 L 1222.8 783.3 L 1226.3 791.2 L 1230.1 799.3 L 1234.1 807.4 L 1238.3 815.5 L 1242.6 823.7 L 1247.1 831.9 L 1251.7 840.1 L 1256.5 848.3 L 1261.4 856.4 L 1266.3 864.5 L 1271.3 872.5 L 1276.4 880.5 L 1281.5 888.4 L 1286.6 896.2 L 1291.8 903.9 L 1296.9 911.5 L 1301.9 918.9 L 1306.9 926.2 L 1311.9 933.4 L 1316.7 940.5 L 1321.5 947.4 L 1326.2 954.1 L 1330.7 960.7 L 1335.0 967.1 L 1339.3 973.4 L 1343.3 979.5 L 1347.2 985.5 L 1350.9 991.3 L 1354.5 997.1 L 1357.8 1002.8 L 1361.0 1008.5 L 1363.5 1013.3" fill="none" stroke="#FCA653" stroke-width="1" stroke-linecap="round" opacity="0.22" stroke-dasharray="1.5 10"/>
    <path d="M 1121.8 -24.4 L 1124.1 -19.9 L 1127.0 -14.7 L 1130.1 -9.5 L 1133.4 -4.1 L 1137.0 1.5 L 1140.7 7.3 L 1144.7 13.2 L 1148.8 19.4 L 1153.1 25.7 L 1157.6 32.3 L 1162.3 39.0 L 1167.0 45.9 L 1171.9 53.0 L 1176.9 60.2 L 1181.9 67.6 L 1187.0 75.1 L 1192.2 82.8 L 1197.4 90.6 L 1202.6 98.5 L 1207.8 106.5 L 1212.9 114.7 L 1218.1 122.9 L 1223.2 131.2 L 1228.2 139.5 L 1233.1 147.9 L 1237.8 156.4 L 1242.5 164.9 L 1247.0 173.4 L 1251.4 181.9 L 1255.5 190.3 L 1259.5 198.8 L 1263.2 207.2 L 1266.7 215.6 L 1270.0 223.9 L 1273.0 232.1 L 1275.7 240.2 L 1278.1 248.3 L 1280.3 256.1 L 1282.1 263.8 L 1283.5 271.4 L 1284.7 278.8 L 1285.5 285.9 L 1285.9 292.9 L 1286.0 299.5 L 1285.7 306.0 L 1285.1 312.7 L 1284.0 319.5 L 1282.5 326.7 L 1280.6 334.0 L 1278.4 341.6 L 1275.7 349.4 L 1272.7 357.4 L 1269.3 365.5 L 1265.6 373.8 L 1261.6 382.3 L 1257.3 390.8 L 1252.7 399.6 L 1247.9 408.4 L 1242.8 417.3 L 1237.6 426.3 L 1232.1 435.4 L 1226.6 444.6 L 1220.9 453.8 L 1215.1 463.1 L 1209.2 472.4 L 1203.2 481.9 L 1197.3 491.3 L 1191.3 500.8 L 1185.4 510.3 L 1179.4 519.9 L 1173.6 529.5 L 1167.9 539.2 L 1162.2 548.8 L 1156.7 558.6 L 1151.4 568.3 L 1146.3 578.1 L 1141.3 587.9 L 1136.6 597.7 L 1132.2 607.6 L 1128.1 617.6 L 1124.3 627.6 L 1120.9 637.6 L 1117.9 647.8 L 1115.2 658.0 L 1113.1 668.3 L 1111.5 678.7 L 1110.4 689.1 L 1110.0 699.5 L 1110.2 709.8 L 1110.8 720.0 L 1111.9 730.2 L 1113.5 740.3 L 1115.4 750.4 L 1117.8 760.4 L 1120.5 770.4 L 1123.5 780.4 L 1126.8 790.3 L 1130.4 800.2 L 1134.2 810.0 L 1138.3 819.7 L 1142.6 829.4 L 1147.2 839.0 L 1151.8 848.6 L 1156.7 858.1 L 1161.7 867.5 L 1166.8 876.8 L 1172.0 886.0 L 1177.3 895.1 L 1182.7 904.0 L 1188.1 912.9 L 1193.5 921.6 L 1199.0 930.2 L 1204.5 938.6 L 1209.9 946.9 L 1215.3 955.0 L 1220.6 963.0 L 1225.9 970.7 L 1231.1 978.3 L 1236.1 985.6 L 1241.0 992.7 L 1245.8 999.6 L 1250.3 1006.3 L 1254.7 1012.6 L 1258.9 1018.8 L 1262.8 1024.6 L 1266.5 1030.1 L 1269.8 1035.3 L 1272.9 1040.1 L 1275.6 1044.6 L 1278.0 1048.6 L 1280.0 1052.1 L 1281.8 1055.6" fill="none" stroke="#FCA653" stroke-width="1.1" stroke-linecap="round" opacity="0.26" stroke-dasharray="1.5 9"/>
    <path d="M 1152.0 -40.0 L 1154.1 -36.0 L 1156.5 -31.6 L 1159.2 -27.0 L 1162.3 -22.1 L 1165.6 -16.9 L 1169.1 -11.4 L 1172.9 -5.7 L 1177.0 0.3 L 1181.2 6.5 L 1185.6 13.0 L 1190.3 19.7 L 1195.0 26.6 L 1199.9 33.7 L 1204.9 41.0 L 1210.0 48.4 L 1215.2 56.1 L 1220.4 63.9 L 1225.7 71.8 L 1231.1 79.9 L 1236.4 88.2 L 1241.7 96.5 L 1247.0 105.0 L 1252.2 113.6 L 1257.4 122.2 L 1262.5 131.0 L 1267.5 139.8 L 1272.4 148.7 L 1277.2 157.6 L 1281.8 166.6 L 1286.2 175.6 L 1290.4 184.7 L 1294.4 193.7 L 1298.3 202.8 L 1301.8 211.9 L 1305.1 220.9 L 1308.1 229.9 L 1310.8 238.9 L 1313.2 247.9 L 1315.3 256.7 L 1317.0 265.6 L 1318.4 274.3 L 1319.3 283.0 L 1319.9 291.5 L 1320.0 300.0 L 1319.6 308.5 L 1318.8 317.0 L 1317.4 325.6 L 1315.6 334.3 L 1313.4 343.1 L 1310.7 352.0 L 1307.7 360.9 L 1304.3 369.9 L 1300.5 378.9 L 1296.5 388.0 L 1292.1 397.2 L 1287.5 406.4 L 1282.6 415.6 L 1277.6 424.9 L 1272.3 434.2 L 1266.9 443.6 L 1261.3 452.9 L 1255.6 462.3 L 1249.8 471.7 L 1243.9 481.1 L 1238.0 490.6 L 1232.0 500.0 L 1226.0 509.4 L 1220.1 518.9 L 1214.2 528.3 L 1208.4 537.7 L 1202.7 547.1 L 1197.1 556.4 L 1191.7 565.8 L 1186.4 575.1 L 1181.4 584.4 L 1176.5 593.6 L 1171.9 602.8 L 1167.5 612.0 L 1163.5 621.1 L 1159.7 630.1 L 1156.3 639.1 L 1153.3 648.0 L 1150.6 656.9 L 1148.4 665.7 L 1146.6 674.4 L 1145.2 683.0 L 1144.4 691.5 L 1144.0 700.0 L 1144.1 708.5 L 1144.7 717.0 L 1145.6 725.7 L 1147.0 734.4 L 1148.7 743.3 L 1150.8 752.1 L 1153.2 761.1 L 1155.9 770.1 L 1158.9 779.1 L 1162.2 788.1 L 1165.8 797.2 L 1169.6 806.3 L 1173.6 815.3 L 1177.8 824.4 L 1182.2 833.4 L 1186.8 842.4 L 1191.6 851.3 L 1196.5 860.2 L 1201.5 869.0 L 1206.6 877.8 L 1211.8 886.4 L 1217.0 895.0 L 1222.3 903.5 L 1227.6 911.8 L 1232.9 920.1 L 1238.3 928.2 L 1243.6 936.1 L 1248.8 943.9 L 1254.0 951.6 L 1259.1 959.0 L 1264.1 966.3 L 1269.0 973.4 L 1273.8 980.3 L 1278.4 987.0 L 1282.8 993.5 L 1287.0 999.7 L 1291.1 1005.7 L 1294.9 1011.4 L 1298.4 1016.9 L 1301.7 1022.1 L 1304.8 1027.0 L 1307.5 1031.6 L 1309.9 1036.0 L 1312.0 1040.0" fill="none" stroke="#FCA653" stroke-width="2.6" stroke-linecap="round" stroke-linejoin="round" opacity="0.8"/>
    
    <circle cx="1152.0" cy="4" r="3" fill="#FCA653" opacity="0.7"/>
    <circle cx="1312.0" cy="996" r="3" fill="#FCA653" opacity="0.7"/>
    <circle cx="1225.7" cy="71.8" r="3.1" fill="#FCA653" opacity="0.8"/>
    <circle cx="1144.4" cy="691.5" r="3.1" fill="#FCA653" opacity="0.8"/>
    <circle cx="1248.8" cy="943.9" r="3.1" fill="#FCA653" opacity="0.8"/>
    
    <circle cx="1310.7" cy="352.0" r="2.6" fill="#FCA653" opacity="0.7"/>
    <g transform="translate(1317.0 265.6)">
      <circle r="22.4" fill="none" stroke="#FCA653" stroke-width="2.24" opacity="0.9"/>
      <circle r="6.4" fill="#FCA653"/>
    </g>
  </g>
</svg>
