<svg xmlns="http://www.w3.org/2000/svg" viewBox="0 0 1600 1000" width="1600" height="1000" preserveAspectRatio="xMidYMid slice">
  <g>
    
    <path d="M 1305.9 -43.9 L 1306.3 -37.8 L 1306.8 -31.5 L 1307.4 -24.6 L 1308.1 -17.0 L 1309.0 -8.9 L 1309.9 -0.2 L 1311.0 8.9 L 1312.1 18.6 L 1313.3 28.7 L 1314.5 39.2 L 1315.8 50.1 L 1317.2 61.4 L 1318.6 73.0 L 1320.0 85.0 L 1321.5 97.3 L 1323.0 109.9 L 1324.5 122.8 L 1325.9 135.9 L 1327.4 149.3 L 1328.9 162.8 L 1330.3 176.6 L 1331.7 190.6 L 1333.1 204.7 L 1334.4 218.9 L 1335.7 233.3 L 1336.9 247.8 L 1338.0 262.3 L 1339.0 277.0 L 1340.0 291.7 L 1340.8 306.4 L 1341.6 321.1 L 1342.2 335.9 L 1342.7 350.6 L 1343.1 365.3 L 1343.3 379.9 L 1343.4 394.5 L 1343.4 409.0 L 1343.1 423.3 L 1342.7 437.6 L 1342.1 451.8 L 1341.3 465.8 L 1340.3 479.6 L 1339.1 493.3 L 1337.6 506.8 L 1335.9 520.3 L 1333.9 534.0 L 1331.6 547.8 L 1329.1 561.8 L 1326.3 575.9 L 1323.4 590.1 L 1320.2 604.5 L 1316.9 618.9 L 1313.3 633.4 L 1309.6 648.0 L 1305.8 662.6 L 1301.8 677.3 L 1297.7 692.0 L 1293.5 706.7 L 1289.1 721.4 L 1284.7 736.0 L 1280.2 750.6 L 1275.6 765.1 L 1271.0 779.6 L 1266.4 793.9 L 1261.7 808.1 L 1257.0 822.2 L 1252.3 836.1 L 1247.6 849.9 L 1242.9 863.4 L 1238.3 876.8 L 1233.7 889.9 L 1229.2 902.7 L 1224.7 915.3 L 1220.3 927.6 L 1216.1 939.6 L 1211.9 951.2 L 1207.9 962.5 L 1204.0 973.4 L 1200.2 983.9 L 1196.6 994.0 L 1193.2 1003.7 L 1190.0 1012.9 L 1187.0 1021.6 L 1184.2 1029.8 L 1181.7 1037.4 L 1179.4 1044.4 L 1177.3 1050.8 L 1175.5 1056.9" fill="none" stroke="#FCA653" stroke-width="1" stroke-linecap="round" opacity="0.22" stroke-dasharray="1.5 10"/>
    <path d="M 1214.1 -37.7 L 1214.5 -31.1 L 1215.1 -23.8 L 1215.8 -16.0 L 1216.6 -7.8 L 1217.5 0.9 L 1218.5 9.9 L 1219.6 19.4 L 1220.7 29.3 L 1221.9 39.5 L 1223.2 50.1 L 1224.5 61.1 L 1225.9 72.4 L 1227.3 84.0 L 1228.7 95.9 L 1230.1 108.1 L 1231.6 120.5 L 1233.0 133.2 L 1234.5 146.1 L 1236.0 159.2 L 1237.4 172.5 L 1238.8 186.0 L 1240.2 199.6 L 1241.5 213.3 L 1242.8 227.2 L 1244.0 241.1 L 1245.1 255.1 L 1246.2 269.1 L 1247.2 283.2 L 1248.1 297.3 L 1249.0 311.4 L 1249.7 325.4 L 1250.3 339.4 L 1250.8 353.4 L 1251.1 367.2 L 1251.3 380.9 L 1251.4 394.5 L 1251.4 408.0 L 1251.2 421.3 L 1250.8 434.3 L 1250.2 447.2 L 1249.5 459.8 L 1248.6 472.2 L 1247.5 484.2 L 1246.2 496.0 L 1244.7 507.8 L 1242.9 519.9 L 1240.9 532.2 L 1238.6 544.9 L 1236.1 557.7 L 1233.4 570.8 L 1230.5 584.1 L 1227.4 597.6 L 1224.0 611.2 L 1220.6 625.0 L 1216.9 638.9 L 1213.1 652.8 L 1209.2 666.9 L 1205.1 680.9 L 1201.0 695.0 L 1196.7 709.2 L 1192.4 723.3 L 1187.9 737.3 L 1183.5 751.4 L 1178.9 765.3 L 1174.4 779.2 L 1169.8 792.9 L 1165.2 806.6 L 1160.6 820.0 L 1156.0 833.3 L 1151.4 846.5 L 1146.9 859.4 L 1142.4 872.1 L 1138.0 884.5 L 1133.7 896.7 L 1129.4 908.6 L 1125.3 920.2 L 1121.2 931.5 L 1117.3 942.5 L 1113.5 953.1 L 1109.9 963.3 L 1106.4 973.2 L 1103.1 982.7 L 1100.0 991.7 L 1097.0 1000.3 L 1094.3 1008.5 L 1091.8 1016.2 L 1089.5 1023.5 L 1087.5 1030.1" fill="none" stroke="#FCA653" stroke-width="1.1" stroke-linecap="round" opacity="0.26" stroke-dasharray="1.5 9"/>
    <path d="M 1248.0 -40.0 L 1248.4 -33.6 L 1249.0 -26.6 L 1249.7 -19.2 L 1250.4 -11.2 L 1251.3 -2.7 L 1252.3 6.2 L 1253.3 15.5 L 1254.5 25.3 L 1255.7 35.5 L 1256.9 46.1 L 1258.3 57.0 L 1259.6 68.3 L 1261.0 79.9 L 1262.4 91.9 L 1263.9 104.1 L 1265.4 116.6 L 1266.8 129.4 L 1268.3 142.3 L 1269.8 155.5 L 1271.2 168.9 L 1272.6 182.5 L 1274.0 196.3 L 1275.3 210.1 L 1276.6 224.1 L 1277.9 238.2 L 1279.0 252.4 L 1280.1 266.6 L 1281.2 280.9 L 1282.1 295.2 L 1282.9 309.5 L 1283.6 323.8 L 1284.3 338.1 L 1284.8 352.3 L 1285.1 366.5 L 1285.3 380.6 L 1285.4 394.5 L 1285.4 408.3 L 1285.1 422.0 L 1284.8 435.5 L 1284.2 448.9 L 1283.4 462.0 L 1282.5 474.9 L 1281.3 487.6 L 1280.0 500.0 L 1278.4 512.4 L 1276.5 525.1 L 1274.4 538.0 L 1272.1 551.1 L 1269.5 564.5 L 1266.7 578.0 L 1263.6 591.7 L 1260.4 605.5 L 1257.0 619.4 L 1253.5 633.5 L 1249.8 647.7 L 1245.9 661.9 L 1241.9 676.2 L 1237.8 690.5 L 1233.5 704.8 L 1229.2 719.1 L 1224.8 733.4 L 1220.3 747.6 L 1215.8 761.8 L 1211.2 775.9 L 1206.6 789.9 L 1202.0 803.8 L 1197.4 817.5 L 1192.7 831.1 L 1188.1 844.5 L 1183.5 857.7 L 1179.0 870.6 L 1174.5 883.4 L 1170.1 895.9 L 1165.7 908.1 L 1161.4 920.1 L 1157.3 931.7 L 1153.3 943.0 L 1149.3 953.9 L 1145.6 964.5 L 1142.0 974.7 L 1138.5 984.5 L 1135.2 993.8 L 1132.1 1002.7 L 1129.3 1011.2 L 1126.6 1019.2 L 1124.1 1026.6 L 1121.9 1033.6 L 1120.0 1040.0" fill="none" stroke="#FCA653" stroke-width="2.6" stroke-linecap="round" stroke-linejoin="round" opacity="0.8"/>
    
    <circle cx="1248.0" cy="4" r="3" fill="#FCA653" opacity="0.7"/>
    <circle cx="1120.0" cy="996" r="3" fill="#FCA653" opacity="0.7"/>
    <circle cx="1259.6" cy="68.3" r="3.1" fill="#FCA653" opacity="0.8"/>
    <circle cx="1237.8" cy="690.5" r="3.1" fill="#FCA653" opacity="0.8"/>
    <circle cx="1153.3" cy="943.0" r="3.1" fill="#FCA653" opacity="0.8"/>
    
    <circle cx="1263.6" cy="591.7" r="2.6" fill="#FCA653" opacity="0.7"/>
    <g transform="translate(1280.0 500.0)">
      <circle r="22.4" fill="none" stroke="#FCA653" stroke-width="2.24" opacity="0.9"/>
      <path d="M0 17.6 C -16.0 -1.6 -12.2 -18.6 0 -18.6 C 12.2 -18.6 16.0 -1.6 0 17.6 Z" fill="none" stroke="#FCA653" stroke-width="3.8"/><circle cy="-6.4" r="4.8" fill="#FCA653"/>
    </g>
  </g>
</svg>
