<svg xmlns="http://www.w3.org/2000/svg" viewBox="0 0 1600 1000" width="1600" height="1000" preserveAspectRatio="xMidYMid slice">
  <g>
    
    <path d="M 1331.8 -44.3 L 1332.1 -40.9 L 1332.5 -37.5 L 1332.9 -33.7 L 1333.5 -29.4 L 1334.2 -24.7 L 1335.0 -19.6 L 1335.9 -14.2 L 1336.9 -8.4 L 1337.9 -2.4 L 1339.0 4.0 L 1340.2 10.6 L 1341.4 17.5 L 1342.7 24.6 L 1344.0 32.0 L 1345.3 39.6 L 1346.6 47.4 L 1348.0 55.4 L 1349.3 63.5 L 1350.7 71.9 L 1352.0 80.4 L 1353.3 89.1 L 1354.5 97.9 L 1355.7 106.8 L 1356.9 115.9 L 1358.0 125.1 L 1359.0 134.3 L 1359.9 143.7 L 1360.8 153.2 L 1361.6 162.8 L 1362.2 172.4 L 1362.8 182.1 L 1363.2 191.8 L 1363.5 201.6 L 1363.6 211.5 L 1363.6 221.4 L 1363.5 231.3 L 1363.1 241.2 L 1362.6 251.1 L 1361.9 261.0 L 1361.0 271.0 L 1359.8 280.9 L 1358.4 290.8 L 1356.8 300.6 L 1354.9 310.5 L 1352.7 320.5 L 1350.1 330.5 L 1347.3 340.5 L 1344.2 350.5 L 1340.8 360.4 L 1337.3 370.2 L 1333.5 380.1 L 1329.5 389.9 L 1325.3 399.7 L 1321.0 409.4 L 1316.5 419.2 L 1311.9 428.9 L 1307.2 438.6 L 1302.3 448.3 L 1297.4 458.0 L 1292.4 467.6 L 1287.4 477.2 L 1282.3 486.8 L 1277.1 496.4 L 1272.0 505.9 L 1266.8 515.4 L 1261.7 524.9 L 1256.5 534.3 L 1251.5 543.6 L 1246.4 552.9 L 1241.5 562.2 L 1236.6 571.4 L 1231.8 580.5 L 1227.1 589.5 L 1222.6 598.5 L 1218.1 607.4 L 1213.9 616.1 L 1209.7 624.8 L 1205.8 633.4 L 1202.1 641.8 L 1198.5 650.1 L 1195.2 658.3 L 1192.1 666.3 L 1189.3 674.1 L 1186.7 681.8 L 1184.3 689.3 L 1182.3 696.5 L 1180.5 703.6 L 1178.9 710.5 L 1177.6 717.6 L 1176.4 724.8 L 1175.4 732.3 L 1174.5 739.8 L 1173.8 747.5 L 1173.2 755.4 L 1172.8 763.3 L 1172.5 771.4 L 1172.4 779.5 L 1172.4 787.7 L 1172.5 796.0 L 1172.7 804.3 L 1173.1 812.7 L 1173.6 821.1 L 1174.1 829.5 L 1174.8 837.9 L 1175.6 846.3 L 1176.4 854.7 L 1177.4 863.1 L 1178.3 871.4 L 1179.4 879.7 L 1180.5 887.9 L 1181.7 896.0 L 1182.9 904.0 L 1184.1 912.0 L 1185.3 919.9 L 1186.6 927.6 L 1187.9 935.2 L 1189.2 942.7 L 1190.5 950.1 L 1191.7 957.3 L 1193.0 964.3 L 1194.2 971.2 L 1195.4 978.0 L 1196.5 984.5 L 1197.6 990.9 L 1198.7 997.1 L 1199.7 1003.2 L 1200.6 1009.1 L 1201.4 1014.8 L 1202.2 1020.3 L 1202.9 1025.7 L 1203.4 1031.1 L 1203.8 1035.7" fill="none" stroke="#37547E" stroke-width="1" stroke-linecap="round" opacity="0.22" stroke-dasharray="1.5 10"/>
    <path d="M 1250.1 -37.5 L 1250.5 -33.1 L 1251.0 -28.2 L 1251.6 -23.2 L 1252.3 -17.9 L 1253.1 -12.4 L 1254.0 -6.7 L 1255.0 -0.8 L 1256.0 5.4 L 1257.1 11.7 L 1258.3 18.2 L 1259.5 24.9 L 1260.7 31.8 L 1261.9 38.9 L 1263.2 46.1 L 1264.5 53.5 L 1265.8 61.1 L 1267.1 68.8 L 1268.4 76.6 L 1269.6 84.6 L 1270.9 92.7 L 1272.1 100.8 L 1273.3 109.1 L 1274.4 117.5 L 1275.5 125.9 L 1276.5 134.4 L 1277.4 143.0 L 1278.3 151.6 L 1279.1 160.2 L 1279.8 168.8 L 1280.4 177.5 L 1280.9 186.2 L 1281.3 194.8 L 1281.5 203.5 L 1281.6 212.1 L 1281.6 220.7 L 1281.5 229.2 L 1281.2 237.6 L 1280.8 246.0 L 1280.2 254.3 L 1279.4 262.4 L 1278.5 270.5 L 1277.4 278.5 L 1276.1 286.3 L 1274.6 293.9 L 1272.9 301.5 L 1271.0 309.2 L 1268.7 317.0 L 1266.2 325.0 L 1263.5 333.2 L 1260.5 341.5 L 1257.2 349.8 L 1253.8 358.4 L 1250.1 367.0 L 1246.2 375.7 L 1242.2 384.5 L 1238.0 393.4 L 1233.6 402.4 L 1229.1 411.4 L 1224.5 420.5 L 1219.7 429.7 L 1214.9 438.9 L 1209.9 448.2 L 1204.9 457.5 L 1199.9 466.8 L 1194.8 476.2 L 1189.7 485.7 L 1184.5 495.1 L 1179.4 504.6 L 1174.2 514.0 L 1169.1 523.5 L 1164.1 533.0 L 1159.1 542.6 L 1154.2 552.1 L 1149.3 561.6 L 1144.6 571.1 L 1139.9 580.6 L 1135.4 590.1 L 1131.1 599.6 L 1126.9 609.1 L 1122.8 618.6 L 1119.0 628.0 L 1115.3 637.5 L 1111.9 646.9 L 1108.7 656.4 L 1105.8 665.8 L 1103.1 675.2 L 1100.7 684.6 L 1098.6 693.9 L 1096.8 703.2 L 1095.3 712.5 L 1094.0 721.9 L 1092.9 731.3 L 1092.0 740.8 L 1091.4 750.3 L 1090.9 759.8 L 1090.5 769.3 L 1090.4 778.8 L 1090.4 788.4 L 1090.5 797.9 L 1090.8 807.3 L 1091.2 816.8 L 1091.7 826.2 L 1092.4 835.6 L 1093.1 844.9 L 1094.0 854.2 L 1094.9 863.3 L 1095.9 872.4 L 1097.0 881.4 L 1098.1 890.3 L 1099.3 899.1 L 1100.5 907.8 L 1101.8 916.3 L 1103.1 924.7 L 1104.4 933.0 L 1105.7 941.0 L 1107.0 948.9 L 1108.4 956.7 L 1109.7 964.2 L 1111.0 971.5 L 1112.2 978.7 L 1113.5 985.5 L 1114.6 992.2 L 1115.8 998.6 L 1116.8 1004.7 L 1117.8 1010.6 L 1118.7 1016.2 L 1119.5 1021.4 L 1120.3 1026.3 L 1120.9 1030.9 L 1121.4 1035.0 L 1121.8 1038.8 L 1122.1 1042.5" fill="none" stroke="#37547E" stroke-width="1.1" stroke-linecap="round" opacity="0.3" stroke-dasharray="1.5 9"/>
    <path d="M 1280.0 -40.0 L 1280.3 -36.0 L 1280.8 -31.6 L 1281.4 -27.0 L 1282.0 -22.1 L 1282.8 -16.9 L 1283.7 -11.4 L 1284.6 -5.7 L 1285.6 0.3 L 1286.7 6.5 L 1287.8 13.0 L 1289.0 19.7 L 1290.2 26.6 L 1291.5 33.7 L 1292.8 41.0 L 1294.1 48.4 L 1295.4 56.1 L 1296.7 63.9 L 1298.0 71.8 L 1299.3 79.9 L 1300.6 88.2 L 1301.8 96.5 L 1303.0 105.0 L 1304.2 113.6 L 1305.3 122.2 L 1306.3 131.0 L 1307.3 139.8 L 1308.2 148.7 L 1309.0 157.6 L 1309.7 166.6 L 1310.3 175.6 L 1310.8 184.7 L 1311.2 193.7 L 1311.5 202.8 L 1311.6 211.9 L 1311.6 220.9 L 1311.5 229.9 L 1311.2 238.9 L 1310.7 247.9 L 1310.1 256.7 L 1309.2 265.6 L 1308.2 274.3 L 1307.0 283.0 L 1305.6 291.5 L 1304.0 300.0 L 1302.1 308.5 L 1299.9 317.0 L 1297.5 325.6 L 1294.8 334.3 L 1291.8 343.1 L 1288.6 352.0 L 1285.1 360.9 L 1281.5 369.9 L 1277.6 378.9 L 1273.6 388.0 L 1269.4 397.2 L 1265.0 406.4 L 1260.5 415.6 L 1255.9 424.9 L 1251.1 434.2 L 1246.3 443.6 L 1241.4 452.9 L 1236.4 462.3 L 1231.3 471.7 L 1226.3 481.1 L 1221.1 490.6 L 1216.0 500.0 L 1210.9 509.4 L 1205.7 518.9 L 1200.7 528.3 L 1195.6 537.7 L 1190.6 547.1 L 1185.7 556.4 L 1180.9 565.8 L 1176.1 575.1 L 1171.5 584.4 L 1167.0 593.6 L 1162.6 602.8 L 1158.4 612.0 L 1154.4 621.1 L 1150.5 630.1 L 1146.9 639.1 L 1143.4 648.0 L 1140.2 656.9 L 1137.2 665.7 L 1134.5 674.4 L 1132.1 683.0 L 1129.9 691.5 L 1128.0 700.0 L 1126.4 708.5 L 1125.0 717.0 L 1123.8 725.7 L 1122.8 734.4 L 1121.9 743.3 L 1121.3 752.1 L 1120.8 761.1 L 1120.5 770.1 L 1120.4 779.1 L 1120.4 788.1 L 1120.5 797.2 L 1120.8 806.3 L 1121.2 815.3 L 1121.7 824.4 L 1122.3 833.4 L 1123.0 842.4 L 1123.8 851.3 L 1124.7 860.2 L 1125.7 869.0 L 1126.7 877.8 L 1127.8 886.4 L 1129.0 895.0 L 1130.2 903.5 L 1131.4 911.8 L 1132.7 920.1 L 1134.0 928.2 L 1135.3 936.1 L 1136.6 943.9 L 1137.9 951.6 L 1139.2 959.0 L 1140.5 966.3 L 1141.8 973.4 L 1143.0 980.3 L 1144.2 987.0 L 1145.3 993.5 L 1146.4 999.7 L 1147.4 1005.7 L 1148.3 1011.4 L 1149.2 1016.9 L 1150.0 1022.1 L 1150.6 1027.0 L 1151.2 1031.6 L 1151.7 1036.0 L 1152.0 1040.0" fill="none" stroke="#E97C2C" stroke-width="2.6" stroke-linecap="round" stroke-linejoin="round" opacity="0.72"/>
    
    <circle cx="1280.0" cy="4" r="3" fill="#E97C2C" opacity="0.7"/>
    <circle cx="1152.0" cy="996" r="3" fill="#E97C2C" opacity="0.7"/>
    <circle cx="1298.0" cy="71.8" r="3.1" fill="#E97C2C" opacity="0.8"/>
    <circle cx="1129.9" cy="691.5" r="3.1" fill="#E97C2C" opacity="0.8"/>
    <circle cx="1136.6" cy="943.9" r="3.1" fill="#E97C2C" opacity="0.8"/>
    
    <circle cx="1162.6" cy="602.8" r="2.6" fill="#E97C2C" opacity="0.7"/>
    <g transform="translate(1216.0 500.0)">
      <circle r="22.4" fill="none" stroke="#37547E" stroke-width="2.24" opacity="0.9"/>
      <path d="M0 -16.0 L 6.4 0 L 0 16.0 L -6.4 0 Z" fill="#E97C2C"/>
    </g>
  </g>
</svg>
