<svg xmlns="http://www.w3.org/2000/svg" viewBox="0 0 1600 1000" width="1600" height="1000" preserveAspectRatio="xMidYMid slice">
  <g>
    
    <path d="M 1167.1 -62.1 L 1168.6 -58.8 L 1170.2 -55.7 L 1172.1 -52.1 L 1174.5 -47.9 L 1177.2 -43.3 L 1180.2 -38.3 L 1183.4 -32.9 L 1187.0 -27.1 L 1190.8 -21.1 L 1194.8 -14.7 L 1198.9 -8.1 L 1203.3 -1.2 L 1207.8 5.9 L 1212.5 13.3 L 1217.2 20.9 L 1222.1 28.7 L 1227.0 36.7 L 1232.0 44.9 L 1237.1 53.3 L 1242.1 61.8 L 1247.2 70.5 L 1252.3 79.4 L 1257.3 88.4 L 1262.3 97.6 L 1267.2 106.9 L 1272.1 116.3 L 1276.8 125.8 L 1281.5 135.4 L 1286.0 145.1 L 1290.4 155.0 L 1294.6 164.9 L 1298.6 174.9 L 1302.4 185.1 L 1305.9 195.3 L 1309.3 205.5 L 1312.3 215.9 L 1315.1 226.3 L 1317.6 236.9 L 1319.7 247.5 L 1321.4 258.2 L 1322.7 269.0 L 1323.6 279.8 L 1324.1 290.7 L 1324.0 301.8 L 1323.3 313.1 L 1321.9 324.4 L 1320.0 335.6 L 1317.6 346.6 L 1314.8 357.4 L 1311.5 368.1 L 1307.8 378.7 L 1303.8 389.1 L 1299.5 399.5 L 1295.0 409.8 L 1290.1 419.9 L 1285.1 430.0 L 1279.9 440.0 L 1274.5 450.0 L 1268.9 459.9 L 1263.3 469.7 L 1257.5 479.5 L 1251.7 489.2 L 1245.8 498.9 L 1240.0 508.4 L 1234.0 518.0 L 1228.2 527.4 L 1222.3 536.8 L 1216.6 546.2 L 1210.9 555.4 L 1205.3 564.6 L 1199.9 573.6 L 1194.6 582.6 L 1189.5 591.4 L 1184.6 600.2 L 1179.9 608.8 L 1175.5 617.2 L 1171.4 625.6 L 1167.5 633.7 L 1164.0 641.6 L 1160.8 649.4 L 1157.9 656.9 L 1155.4 664.2 L 1153.2 671.2 L 1151.5 677.9 L 1150.0 684.3 L 1149.0 690.4 L 1148.3 696.2 L 1148.0 701.8 L 1147.9 707.7 L 1148.2 713.9 L 1148.7 720.3 L 1149.5 727.1 L 1150.7 734.0 L 1152.1 741.2 L 1153.8 748.5 L 1155.8 756.0 L 1158.1 763.7 L 1160.6 771.5 L 1163.4 779.4 L 1166.4 787.4 L 1169.6 795.5 L 1173.1 803.7 L 1176.7 811.9 L 1180.5 820.1 L 1184.5 828.4 L 1188.6 836.6 L 1192.9 844.9 L 1197.3 853.1 L 1201.7 861.3 L 1206.3 869.4 L 1210.9 877.5 L 1215.5 885.5 L 1220.2 893.4 L 1224.9 901.2 L 1229.6 908.9 L 1234.3 916.5 L 1239.0 924.0 L 1243.6 931.4 L 1248.1 938.6 L 1252.6 945.6 L 1256.9 952.5 L 1261.2 959.3 L 1265.3 965.8 L 1269.3 972.2 L 1273.2 978.5 L 1276.9 984.6 L 1280.4 990.5 L 1283.8 996.3 L 1287.0 1002.0 L 1290.0 1007.6 L 1292.8 1013.1 L 1295.1 1017.9" fill="none" stroke="#37547E" stroke-width="1" stroke-linecap="round" opacity="0.22" stroke-dasharray="1.5 10"/>
    <path d="M 1092.8 -27.3 L 1094.9 -22.8 L 1097.5 -17.7 L 1100.3 -12.6 L 1103.3 -7.2 L 1106.5 -1.7 L 1109.9 4.1 L 1113.5 10.0 L 1117.3 16.1 L 1121.3 22.5 L 1125.4 29.0 L 1129.6 35.7 L 1134.0 42.6 L 1138.5 49.7 L 1143.0 56.9 L 1147.7 64.3 L 1152.4 71.9 L 1157.1 79.6 L 1161.9 87.4 L 1166.7 95.3 L 1171.4 103.4 L 1176.2 111.5 L 1180.9 119.8 L 1185.5 128.1 L 1190.1 136.5 L 1194.6 144.9 L 1199.0 153.4 L 1203.2 161.9 L 1207.4 170.5 L 1211.3 179.0 L 1215.1 187.6 L 1218.7 196.1 L 1222.1 204.6 L 1225.3 213.1 L 1228.3 221.5 L 1230.9 229.8 L 1233.4 238.0 L 1235.5 246.2 L 1237.4 254.2 L 1239.0 262.1 L 1240.2 269.8 L 1241.2 277.4 L 1241.8 284.8 L 1242.1 292.0 L 1242.0 299.0 L 1241.6 305.8 L 1240.8 312.7 L 1239.6 319.9 L 1237.9 327.3 L 1235.9 334.9 L 1233.5 342.7 L 1230.8 350.6 L 1227.7 358.8 L 1224.2 367.1 L 1220.5 375.5 L 1216.4 384.1 L 1212.1 392.8 L 1207.5 401.5 L 1202.7 410.4 L 1197.6 419.4 L 1192.4 428.5 L 1187.0 437.6 L 1181.5 446.8 L 1175.9 456.1 L 1170.2 465.4 L 1164.4 474.8 L 1158.5 484.2 L 1152.6 493.6 L 1146.8 503.1 L 1140.9 512.6 L 1135.1 522.2 L 1129.4 531.7 L 1123.7 541.3 L 1118.2 551.0 L 1112.8 560.6 L 1107.5 570.3 L 1102.5 580.0 L 1097.6 589.7 L 1093.0 599.4 L 1088.7 609.2 L 1084.6 619.0 L 1080.9 628.8 L 1077.4 638.7 L 1074.4 648.6 L 1071.8 658.6 L 1069.6 668.6 L 1067.8 678.7 L 1066.6 688.9 L 1066.0 699.0 L 1065.9 708.9 L 1066.3 718.9 L 1067.1 728.8 L 1068.4 738.7 L 1070.0 748.6 L 1071.9 758.5 L 1074.2 768.3 L 1076.8 778.2 L 1079.7 788.0 L 1082.9 797.7 L 1086.3 807.4 L 1089.9 817.1 L 1093.8 826.7 L 1097.8 836.3 L 1102.0 845.8 L 1106.4 855.2 L 1110.9 864.5 L 1115.5 873.8 L 1120.3 882.9 L 1125.1 892.0 L 1129.9 900.9 L 1134.9 909.8 L 1139.9 918.5 L 1144.8 927.0 L 1149.8 935.4 L 1154.8 943.7 L 1159.7 951.8 L 1164.6 959.7 L 1169.4 967.5 L 1174.2 975.0 L 1178.8 982.3 L 1183.3 989.5 L 1187.6 996.3 L 1191.8 1003.0 L 1195.9 1009.4 L 1199.7 1015.5 L 1203.3 1021.4 L 1206.7 1026.9 L 1209.8 1032.1 L 1212.6 1037.0 L 1215.1 1041.5 L 1217.3 1045.5 L 1219.2 1049.2 L 1220.8 1052.7" fill="none" stroke="#37547E" stroke-width="1.1" stroke-linecap="round" opacity="0.3" stroke-dasharray="1.5 9"/>
    <path d="M 1120.0 -40.0 L 1121.9 -36.0 L 1124.1 -31.6 L 1126.6 -27.0 L 1129.3 -22.1 L 1132.4 -16.9 L 1135.6 -11.4 L 1139.1 -5.7 L 1142.8 0.3 L 1146.7 6.5 L 1150.8 13.0 L 1155.0 19.7 L 1159.4 26.6 L 1163.8 33.7 L 1168.4 41.0 L 1173.1 48.4 L 1177.9 56.1 L 1182.7 63.9 L 1187.5 71.8 L 1192.4 79.9 L 1197.3 88.2 L 1202.2 96.5 L 1207.0 105.0 L 1211.8 113.6 L 1216.5 122.2 L 1221.2 131.0 L 1225.7 139.8 L 1230.2 148.7 L 1234.5 157.6 L 1238.6 166.6 L 1242.6 175.6 L 1246.5 184.7 L 1250.1 193.7 L 1253.5 202.8 L 1256.7 211.9 L 1259.6 220.9 L 1262.3 229.9 L 1264.7 238.9 L 1266.7 247.9 L 1268.5 256.7 L 1269.9 265.6 L 1271.0 274.3 L 1271.7 283.0 L 1272.1 291.5 L 1272.0 300.0 L 1271.5 308.5 L 1270.5 317.0 L 1269.0 325.6 L 1267.1 334.3 L 1264.8 343.1 L 1262.0 352.0 L 1259.0 360.9 L 1255.5 369.9 L 1251.8 378.9 L 1247.7 388.0 L 1243.4 397.2 L 1238.8 406.4 L 1234.0 415.6 L 1228.9 424.9 L 1223.7 434.2 L 1218.4 443.6 L 1212.8 452.9 L 1207.2 462.3 L 1201.5 471.7 L 1195.7 481.1 L 1189.9 490.6 L 1184.0 500.0 L 1178.1 509.4 L 1172.3 518.9 L 1166.5 528.3 L 1160.8 537.7 L 1155.2 547.1 L 1149.6 556.4 L 1144.3 565.8 L 1139.1 575.1 L 1134.0 584.4 L 1129.2 593.6 L 1124.6 602.8 L 1120.3 612.0 L 1116.2 621.1 L 1112.5 630.1 L 1109.0 639.1 L 1106.0 648.0 L 1103.2 656.9 L 1100.9 665.7 L 1099.0 674.4 L 1097.5 683.0 L 1096.5 691.5 L 1096.0 700.0 L 1095.9 708.5 L 1096.3 717.0 L 1097.0 725.7 L 1098.1 734.4 L 1099.5 743.3 L 1101.3 752.1 L 1103.3 761.1 L 1105.7 770.1 L 1108.4 779.1 L 1111.3 788.1 L 1114.5 797.2 L 1117.9 806.3 L 1121.5 815.3 L 1125.4 824.4 L 1129.4 833.4 L 1133.5 842.4 L 1137.8 851.3 L 1142.3 860.2 L 1146.8 869.0 L 1151.5 877.8 L 1156.2 886.4 L 1161.0 895.0 L 1165.8 903.5 L 1170.7 911.8 L 1175.6 920.1 L 1180.5 928.2 L 1185.3 936.1 L 1190.1 943.9 L 1194.9 951.6 L 1199.6 959.0 L 1204.2 966.3 L 1208.6 973.4 L 1213.0 980.3 L 1217.2 987.0 L 1221.3 993.5 L 1225.2 999.7 L 1228.9 1005.7 L 1232.4 1011.4 L 1235.6 1016.9 L 1238.7 1022.1 L 1241.4 1027.0 L 1243.9 1031.6 L 1246.1 1036.0 L 1248.0 1040.0" fill="none" stroke="#E97C2C" stroke-width="2.6" stroke-linecap="round" stroke-linejoin="round" opacity="0.72"/>
    
    <circle cx="1120.0" cy="4" r="3" fill="#E97C2C" opacity="0.7"/>
    <circle cx="1248.0" cy="996" r="3" fill="#E97C2C" opacity="0.7"/>
    <circle cx="1187.5" cy="71.8" r="3.1" fill="#E97C2C" opacity="0.8"/>
    <circle cx="1096.5" cy="691.5" r="3.1" fill="#E97C2C" opacity="0.8"/>
    <circle cx="1190.1" cy="943.9" r="3.1" fill="#E97C2C" opacity="0.8"/>
    
    <circle cx="1262.0" cy="352.0" r="2.6" fill="#E97C2C" opacity="0.7"/>
    <g transform="translate(1269.9 265.6)">
      <circle r="22.4" fill="none" stroke="#37547E" stroke-width="2.24" opacity="0.9"/>
      <circle r="13.4" fill="none" stroke="#E97C2C" stroke-width="3.8"/><circle r="3.8" fill="#E97C2C"/>
    </g>
  </g>
</svg>
