<svg xmlns="http://www.w3.org/2000/svg" viewBox="0 0 1600 1000" width="1600" height="1000" preserveAspectRatio="xMidYMid slice">
  <g>
    
    <path d="M 1369.8 -44.8 L 1370.1 -41.4 L 1370.4 -38.2 L 1370.9 -34.5 L 1371.5 -30.3 L 1372.1 -25.6 L 1372.9 -20.6 L 1373.8 -15.2 L 1374.8 -9.5 L 1375.8 -3.4 L 1376.9 2.9 L 1378.1 9.6 L 1379.3 16.5 L 1380.6 23.6 L 1381.9 31.0 L 1383.2 38.6 L 1384.6 46.4 L 1385.9 54.4 L 1387.2 62.6 L 1388.6 71.0 L 1389.9 79.5 L 1391.2 88.2 L 1392.5 97.0 L 1393.7 106.0 L 1394.8 115.1 L 1395.9 124.4 L 1397.0 133.7 L 1397.9 143.2 L 1398.8 152.7 L 1399.5 162.3 L 1400.2 172.0 L 1400.8 181.8 L 1401.2 191.6 L 1401.5 201.5 L 1401.6 211.4 L 1401.6 221.4 L 1401.5 231.4 L 1401.1 241.4 L 1400.6 251.5 L 1399.9 261.5 L 1398.9 271.6 L 1397.8 281.6 L 1396.4 291.7 L 1394.7 301.7 L 1392.8 311.7 L 1390.5 321.9 L 1387.9 332.1 L 1385.1 342.2 L 1381.9 352.3 L 1378.5 362.3 L 1374.9 372.3 L 1371.0 382.3 L 1367.0 392.2 L 1362.8 402.1 L 1358.4 411.9 L 1353.9 421.7 L 1349.3 431.5 L 1344.5 441.3 L 1339.7 451.0 L 1334.7 460.7 L 1329.7 470.4 L 1324.7 480.0 L 1319.6 489.7 L 1314.4 499.2 L 1309.2 508.8 L 1304.1 518.3 L 1298.9 527.7 L 1293.8 537.1 L 1288.7 546.5 L 1283.7 555.8 L 1278.8 565.0 L 1273.9 574.2 L 1269.1 583.3 L 1264.4 592.3 L 1259.9 601.2 L 1255.5 610.0 L 1251.3 618.7 L 1247.2 627.3 L 1243.3 635.8 L 1239.6 644.2 L 1236.1 652.4 L 1232.8 660.5 L 1229.7 668.4 L 1226.9 676.1 L 1224.4 683.6 L 1222.1 691.0 L 1220.1 698.1 L 1218.3 705.0 L 1216.8 711.7 L 1215.5 718.6 L 1214.3 725.7 L 1213.3 733.0 L 1212.4 740.5 L 1211.7 748.0 L 1211.2 755.8 L 1210.8 763.6 L 1210.5 771.5 L 1210.4 779.6 L 1210.4 787.7 L 1210.5 795.9 L 1210.7 804.1 L 1211.1 812.4 L 1211.6 820.7 L 1212.1 829.1 L 1212.8 837.4 L 1213.6 845.8 L 1214.4 854.1 L 1215.3 862.4 L 1216.3 870.7 L 1217.3 878.9 L 1218.5 887.0 L 1219.6 895.1 L 1220.8 903.1 L 1222.0 911.1 L 1223.3 918.9 L 1224.5 926.6 L 1225.8 934.2 L 1227.1 941.7 L 1228.4 949.0 L 1229.6 956.2 L 1230.9 963.3 L 1232.1 970.2 L 1233.3 976.9 L 1234.5 983.5 L 1235.6 989.9 L 1236.6 996.2 L 1237.6 1002.2 L 1238.5 1008.2 L 1239.4 1013.9 L 1240.2 1019.5 L 1240.8 1025.1 L 1241.4 1030.5 L 1241.8 1035.2" fill="none" stroke="#FCA653" stroke-width="1" stroke-linecap="round" opacity="0.22" stroke-dasharray="1.5 10"/>
    <path d="M 1278.1 -37.2 L 1278.5 -32.8 L 1279.0 -27.8 L 1279.6 -22.6 L 1280.4 -17.3 L 1281.2 -11.8 L 1282.1 -6.0 L 1283.1 -0.1 L 1284.1 6.0 L 1285.2 12.4 L 1286.3 18.9 L 1287.5 25.6 L 1288.7 32.5 L 1290.0 39.6 L 1291.3 46.8 L 1292.6 54.2 L 1293.9 61.8 L 1295.1 69.5 L 1296.4 77.3 L 1297.7 85.2 L 1298.9 93.3 L 1300.1 101.4 L 1301.3 109.7 L 1302.4 118.0 L 1303.5 126.4 L 1304.5 134.9 L 1305.5 143.4 L 1306.3 151.9 L 1307.1 160.5 L 1307.8 169.1 L 1308.4 177.8 L 1308.9 186.4 L 1309.3 195.0 L 1309.5 203.6 L 1309.6 212.1 L 1309.6 220.6 L 1309.5 229.1 L 1309.2 237.4 L 1308.8 245.7 L 1308.2 253.9 L 1307.4 262.0 L 1306.5 270.0 L 1305.4 277.9 L 1304.1 285.6 L 1302.7 293.1 L 1301.0 300.6 L 1299.1 308.1 L 1296.9 315.9 L 1294.4 323.8 L 1291.7 331.9 L 1288.7 340.0 L 1285.5 348.4 L 1282.1 356.8 L 1278.4 365.4 L 1274.6 374.0 L 1270.6 382.8 L 1266.4 391.7 L 1262.0 400.6 L 1257.5 409.6 L 1252.9 418.7 L 1248.2 427.8 L 1243.3 437.0 L 1238.4 446.3 L 1233.4 455.6 L 1228.4 464.9 L 1223.3 474.3 L 1218.1 483.7 L 1213.0 493.2 L 1207.9 502.7 L 1202.7 512.2 L 1197.6 521.7 L 1192.6 531.2 L 1187.5 540.7 L 1182.6 550.3 L 1177.7 559.8 L 1173.0 569.3 L 1168.3 578.9 L 1163.8 588.4 L 1159.4 598.0 L 1155.2 607.5 L 1151.1 617.0 L 1147.3 626.6 L 1143.6 636.1 L 1140.1 645.6 L 1136.9 655.1 L 1133.9 664.6 L 1131.2 674.1 L 1128.8 683.7 L 1126.7 693.1 L 1124.9 702.5 L 1123.4 711.9 L 1122.0 721.4 L 1120.9 730.9 L 1120.1 740.5 L 1119.4 750.0 L 1118.9 759.6 L 1118.5 769.2 L 1118.4 778.8 L 1118.4 788.4 L 1118.5 797.9 L 1118.8 807.5 L 1119.2 817.0 L 1119.7 826.5 L 1120.4 835.9 L 1121.1 845.3 L 1122.0 854.5 L 1122.9 863.8 L 1123.9 872.9 L 1125.0 881.9 L 1126.1 890.9 L 1127.3 899.7 L 1128.6 908.4 L 1129.8 916.9 L 1131.1 925.3 L 1132.4 933.6 L 1133.8 941.7 L 1135.1 949.6 L 1136.4 957.4 L 1137.7 964.9 L 1139.0 972.2 L 1140.3 979.4 L 1141.5 986.2 L 1142.7 992.9 L 1143.8 999.3 L 1144.9 1005.4 L 1145.9 1011.2 L 1146.8 1016.8 L 1147.6 1022.0 L 1148.3 1026.9 L 1148.9 1031.4 L 1149.4 1035.5 L 1149.8 1039.2 L 1150.1 1042.8" fill="none" stroke="#FCA653" stroke-width="1.1" stroke-linecap="round" opacity="0.26" stroke-dasharray="1.5 9"/>
    <path d="M 1312.0 -40.0 L 1312.3 -36.0 L 1312.8 -31.6 L 1313.4 -27.0 L 1314.0 -22.1 L 1314.8 -16.9 L 1315.7 -11.4 L 1316.6 -5.7 L 1317.6 0.3 L 1318.7 6.5 L 1319.8 13.0 L 1321.0 19.7 L 1322.2 26.6 L 1323.5 33.7 L 1324.8 41.0 L 1326.1 48.4 L 1327.4 56.1 L 1328.7 63.9 L 1330.0 71.8 L 1331.3 79.9 L 1332.6 88.2 L 1333.8 96.5 L 1335.0 105.0 L 1336.2 113.6 L 1337.3 122.2 L 1338.3 131.0 L 1339.3 139.8 L 1340.2 148.7 L 1341.0 157.6 L 1341.7 166.6 L 1342.3 175.6 L 1342.8 184.7 L 1343.2 193.7 L 1343.5 202.8 L 1343.6 211.9 L 1343.6 220.9 L 1343.5 229.9 L 1343.2 238.9 L 1342.7 247.9 L 1342.1 256.7 L 1341.2 265.6 L 1340.2 274.3 L 1339.0 283.0 L 1337.6 291.5 L 1336.0 300.0 L 1334.1 308.5 L 1331.9 317.0 L 1329.5 325.6 L 1326.8 334.3 L 1323.8 343.1 L 1320.6 352.0 L 1317.1 360.9 L 1313.5 369.9 L 1309.6 378.9 L 1305.6 388.0 L 1301.4 397.2 L 1297.0 406.4 L 1292.5 415.6 L 1287.9 424.9 L 1283.1 434.2 L 1278.3 443.6 L 1273.4 452.9 L 1268.4 462.3 L 1263.3 471.7 L 1258.3 481.1 L 1253.1 490.6 L 1248.0 500.0 L 1242.9 509.4 L 1237.7 518.9 L 1232.7 528.3 L 1227.6 537.7 L 1222.6 547.1 L 1217.7 556.4 L 1212.9 565.8 L 1208.1 575.1 L 1203.5 584.4 L 1199.0 593.6 L 1194.6 602.8 L 1190.4 612.0 L 1186.4 621.1 L 1182.5 630.1 L 1178.9 639.1 L 1175.4 648.0 L 1172.2 656.9 L 1169.2 665.7 L 1166.5 674.4 L 1164.1 683.0 L 1161.9 691.5 L 1160.0 700.0 L 1158.4 708.5 L 1157.0 717.0 L 1155.8 725.7 L 1154.8 734.4 L 1153.9 743.3 L 1153.3 752.1 L 1152.8 761.1 L 1152.5 770.1 L 1152.4 779.1 L 1152.4 788.1 L 1152.5 797.2 L 1152.8 806.3 L 1153.2 815.3 L 1153.7 824.4 L 1154.3 833.4 L 1155.0 842.4 L 1155.8 851.3 L 1156.7 860.2 L 1157.7 869.0 L 1158.7 877.8 L 1159.8 886.4 L 1161.0 895.0 L 1162.2 903.5 L 1163.4 911.8 L 1164.7 920.1 L 1166.0 928.2 L 1167.3 936.1 L 1168.6 943.9 L 1169.9 951.6 L 1171.2 959.0 L 1172.5 966.3 L 1173.8 973.4 L 1175.0 980.3 L 1176.2 987.0 L 1177.3 993.5 L 1178.4 999.7 L 1179.4 1005.7 L 1180.3 1011.4 L 1181.2 1016.9 L 1182.0 1022.1 L 1182.6 1027.0 L 1183.2 1031.6 L 1183.7 1036.0 L 1184.0 1040.0" fill="none" stroke="#FCA653" stroke-width="2.6" stroke-linecap="round" stroke-linejoin="round" opacity="0.8"/>
    
    <circle cx="1312.0" cy="4" r="3" fill="#FCA653" opacity="0.7"/>
    <circle cx="1184.0" cy="996" r="3" fill="#FCA653" opacity="0.7"/>
    <circle cx="1330.0" cy="71.8" r="3.1" fill="#FCA653" opacity="0.8"/>
    <circle cx="1161.9" cy="691.5" r="3.1" fill="#FCA653" opacity="0.8"/>
    <circle cx="1168.6" cy="943.9" r="3.1" fill="#FCA653" opacity="0.8"/>
    
    <circle cx="1320.6" cy="352.0" r="2.6" fill="#FCA653" opacity="0.7"/>
    <g transform="translate(1341.2 265.6)">
      <circle r="22.4" fill="none" stroke="#FCA653" stroke-width="2.24" opacity="0.9"/>
      <path d="M 0.0 -17.6 L 4.5 -6.2 L 16.7 -5.4 L 7.3 2.4 L 10.3 14.2 L 0.0 7.7 L -10.3 14.2 L -7.3 2.4 L -16.7 -5.4 L -4.5 -6.2 Z" fill="#FCA653"/>
    </g>
  </g>
</svg>
