<svg xmlns="http://www.w3.org/2000/svg" viewBox="0 0 1600 1000" width="1600" height="1000" preserveAspectRatio="xMidYMid slice">
  <g>

    <path d="M 1369.0 -40.0 L 1371.2 -32.0 L 1373.3 -24.0 L 1375.3 -15.9 L 1377.2 -7.8 L 1379.1 0.3 L 1380.8 8.4 L 1382.5 16.6 L 1384.1 24.9 L 1385.5 33.1 L 1386.9 41.4 L 1388.3 49.7 L 1389.5 58.1 L 1390.7 66.4 L 1391.7 74.8 L 1392.8 83.3 L 1393.7 91.7 L 1394.6 100.2 L 1395.3 108.7 L 1396.1 117.2 L 1396.7 125.8 L 1397.3 134.4 L 1397.8 143.0 L 1398.3 151.6 L 1398.6 160.2 L 1399.0 168.9 L 1399.2 177.6 L 1399.5 186.3 L 1399.6 195.0 L 1399.7 203.7 L 1399.7 212.5 L 1399.7 221.2 L 1399.7 230.0 L 1399.5 238.8 L 1399.4 247.6 L 1399.2 256.4 L 1398.9 265.3 L 1398.6 274.1 L 1398.3 283.0 L 1397.9 291.8 L 1397.4 300.7 L 1397.0 309.6 L 1396.5 318.5 L 1395.9 327.4 L 1395.4 336.3 L 1394.7 345.2 L 1394.1 354.2 L 1393.4 363.1 L 1392.7 372.0 L 1392.0 381.0 L 1391.2 389.9 L 1390.5 398.9 L 1389.7 407.8 L 1388.8 416.7 L 1388.0 425.7 L 1387.1 434.6 L 1386.3 443.6 L 1385.4 452.5 L 1384.4 461.5 L 1383.5 470.4 L 1382.6 479.3 L 1381.6 488.3 L 1380.7 497.2 L 1379.7 506.1 L 1378.8 515.0 L 1377.8 523.9 L 1376.8 532.8 L 1375.8 541.7 L 1374.8 550.6 L 1373.9 559.4 L 1372.9 568.3 L 1371.9 577.1 L 1370.9 586.0 L 1370.0 594.8 L 1369.0 603.6 L 1368.1 612.4 L 1367.1 621.1 L 1366.2 629.9 L 1365.3 638.7 L 1364.4 647.4 L 1363.6 656.1 L 1362.7 664.8 L 1361.9 673.5 L 1361.0 682.1 L 1360.2 690.7 L 1359.5 699.4 L 1358.7 707.9 L 1358.0 716.5 L 1357.3 725.1 L 1356.7 733.6 L 1356.0 742.1 L 1355.4 750.5 L 1354.9 759.0 L 1354.3 767.4 L 1353.8 775.8 L 1353.4 784.2 L 1353.0 792.5 L 1352.6 800.8 L 1352.3 809.1 L 1352.0 817.3 L 1351.7 825.5 L 1351.5 833.7 L 1351.4 841.9 L 1351.3 850.0 L 1351.2 858.1 L 1351.2 866.1 L 1351.3 874.1 L 1351.4 882.1 L 1351.6 890.0 L 1351.8 897.9 L 1352.1 905.8 L 1352.4 913.6 L 1352.8 921.4 L 1353.3 929.1 L 1353.8 936.9 L 1354.5 944.5 L 1355.1 952.1 L 1355.9 959.7 L 1356.7 967.2 L 1357.6 974.7 L 1358.5 982.2 L 1359.6 989.6 L 1360.7 996.9 L 1361.8 1004.2 L 1363.1 1011.5 L 1364.5 1018.7 L 1365.9 1025.8 L 1367.4 1032.9 L 1369.0 1040.0" fill="none" stroke="#FCA653" stroke-width="1" stroke-linecap="round" opacity="0.22" stroke-dasharray="1.5 10"/>
    <path d="M 1278.0 -40.0 L 1280.2 -32.0 L 1282.3 -24.0 L 1284.3 -15.9 L 1286.2 -7.8 L 1288.1 0.3 L 1289.8 8.4 L 1291.5 16.6 L 1293.1 24.9 L 1294.5 33.1 L 1295.9 41.4 L 1297.3 49.7 L 1298.5 58.1 L 1299.7 66.4 L 1300.7 74.8 L 1301.8 83.3 L 1302.7 91.7 L 1303.6 100.2 L 1304.3 108.7 L 1305.1 117.2 L 1305.7 125.8 L 1306.3 134.4 L 1306.8 143.0 L 1307.3 151.6 L 1307.6 160.2 L 1308.0 168.9 L 1308.2 177.6 L 1308.5 186.3 L 1308.6 195.0 L 1308.7 203.7 L 1308.7 212.5 L 1308.7 221.2 L 1308.7 230.0 L 1308.5 238.8 L 1308.4 247.6 L 1308.2 256.4 L 1307.9 265.3 L 1307.6 274.1 L 1307.3 283.0 L 1306.9 291.8 L 1306.4 300.7 L 1306.0 309.6 L 1305.5 318.5 L 1304.9 327.4 L 1304.4 336.3 L 1303.7 345.2 L 1303.1 354.2 L 1302.4 363.1 L 1301.7 372.0 L 1301.0 381.0 L 1300.2 389.9 L 1299.5 398.9 L 1298.7 407.8 L 1297.8 416.7 L 1297.0 425.7 L 1296.1 434.6 L 1295.3 443.6 L 1294.4 452.5 L 1293.4 461.5 L 1292.5 470.4 L 1291.6 479.3 L 1290.6 488.3 L 1289.7 497.2 L 1288.7 506.1 L 1287.8 515.0 L 1286.8 523.9 L 1285.8 532.8 L 1284.8 541.7 L 1283.8 550.6 L 1282.9 559.4 L 1281.9 568.3 L 1280.9 577.1 L 1279.9 586.0 L 1279.0 594.8 L 1278.0 603.6 L 1277.1 612.4 L 1276.1 621.1 L 1275.2 629.9 L 1274.3 638.7 L 1273.4 647.4 L 1272.6 656.1 L 1271.7 664.8 L 1270.9 673.5 L 1270.0 682.1 L 1269.2 690.7 L 1268.5 699.4 L 1267.7 707.9 L 1267.0 716.5 L 1266.3 725.1 L 1265.7 733.6 L 1265.0 742.1 L 1264.4 750.5 L 1263.9 759.0 L 1263.3 767.4 L 1262.8 775.8 L 1262.4 784.2 L 1262.0 792.5 L 1261.6 800.8 L 1261.3 809.1 L 1261.0 817.3 L 1260.7 825.5 L 1260.5 833.7 L 1260.4 841.9 L 1260.3 850.0 L 1260.2 858.1 L 1260.2 866.1 L 1260.3 874.1 L 1260.4 882.1 L 1260.6 890.0 L 1260.8 897.9 L 1261.1 905.8 L 1261.4 913.6 L 1261.8 921.4 L 1262.3 929.1 L 1262.8 936.9 L 1263.5 944.5 L 1264.1 952.1 L 1264.9 959.7 L 1265.7 967.2 L 1266.6 974.7 L 1267.5 982.2 L 1268.6 989.6 L 1269.7 996.9 L 1270.8 1004.2 L 1272.1 1011.5 L 1273.5 1018.7 L 1274.9 1025.8 L 1276.4 1032.9 L 1278.0 1040.0" fill="none" stroke="#FCA653" stroke-width="1.1" stroke-linecap="round" opacity="0.3" stroke-dasharray="1.5 9"/>
    <path d="M 1312.0 -40.0 L 1314.2 -32.0 L 1316.3 -24.0 L 1318.3 -15.9 L 1320.2 -7.8 L 1322.1 0.3 L 1323.8 8.4 L 1325.5 16.6 L 1327.1 24.9 L 1328.5 33.1 L 1329.9 41.4 L 1331.3 49.7 L 1332.5 58.1 L 1333.7 66.4 L 1334.7 74.8 L 1335.8 83.3 L 1336.7 91.7 L 1337.6 100.2 L 1338.3 108.7 L 1339.1 117.2 L 1339.7 125.8 L 1340.3 134.4 L 1340.8 143.0 L 1341.3 151.6 L 1341.6 160.2 L 1342.0 168.9 L 1342.2 177.6 L 1342.5 186.3 L 1342.6 195.0 L 1342.7 203.7 L 1342.7 212.5 L 1342.7 221.2 L 1342.7 230.0 L 1342.5 238.8 L 1342.4 247.6 L 1342.2 256.4 L 1341.9 265.3 L 1341.6 274.1 L 1341.3 283.0 L 1340.9 291.8 L 1340.4 300.7 L 1340.0 309.6 L 1339.5 318.5 L 1338.9 327.4 L 1338.4 336.3 L 1337.7 345.2 L 1337.1 354.2 L 1336.4 363.1 L 1335.7 372.0 L 1335.0 381.0 L 1334.2 389.9 L 1333.5 398.9 L 1332.7 407.8 L 1331.8 416.7 L 1331.0 425.7 L 1330.1 434.6 L 1329.3 443.6 L 1328.4 452.5 L 1327.4 461.5 L 1326.5 470.4 L 1325.6 479.3 L 1324.6 488.3 L 1323.7 497.2 L 1322.7 506.1 L 1321.8 515.0 L 1320.8 523.9 L 1319.8 532.8 L 1318.8 541.7 L 1317.8 550.6 L 1316.9 559.4 L 1315.9 568.3 L 1314.9 577.1 L 1313.9 586.0 L 1313.0 594.8 L 1312.0 603.6 L 1311.1 612.4 L 1310.1 621.1 L 1309.2 629.9 L 1308.3 638.7 L 1307.4 647.4 L 1306.6 656.1 L 1305.7 664.8 L 1304.9 673.5 L 1304.0 682.1 L 1303.2 690.7 L 1302.5 699.4 L 1301.7 707.9 L 1301.0 716.5 L 1300.3 725.1 L 1299.7 733.6 L 1299.0 742.1 L 1298.4 750.5 L 1297.9 759.0 L 1297.3 767.4 L 1296.8 775.8 L 1296.4 784.2 L 1296.0 792.5 L 1295.6 800.8 L 1295.3 809.1 L 1295.0 817.3 L 1294.7 825.5 L 1294.5 833.7 L 1294.4 841.9 L 1294.3 850.0 L 1294.2 858.1 L 1294.2 866.1 L 1294.3 874.1 L 1294.4 882.1 L 1294.6 890.0 L 1294.8 897.9 L 1295.1 905.8 L 1295.4 913.6 L 1295.8 921.4 L 1296.3 929.1 L 1296.8 936.9 L 1297.5 944.5 L 1298.1 952.1 L 1298.9 959.7 L 1299.7 967.2 L 1300.6 974.7 L 1301.5 982.2 L 1302.6 989.6 L 1303.7 996.9 L 1304.8 1004.2 L 1306.1 1011.5 L 1307.5 1018.7 L 1308.9 1025.8 L 1310.4 1032.9 L 1312.0 1040.0" fill="none" stroke="#FCA653" stroke-width="2.6" stroke-linecap="round" stroke-linejoin="round" opacity="0.8"/>

    <circle cx="1327.1" cy="24.9" r="3" fill="#FCA653" opacity="0.7"/>
    <circle cx="1339.7" cy="125.8" r="3.1" fill="#FCA653" opacity="0.8"/>
    <circle cx="1341.3" cy="283.0" r="3" fill="#FCA653" opacity="0.7"/>
    <circle cx="1307.4" cy="647.4" r="3.1" fill="#FCA653" opacity="0.8"/>
    <circle cx="1297.5" cy="944.5" r="3" fill="#FCA653" opacity="0.7"/>
    <circle cx="1306.1" cy="1011.5" r="3.1" fill="#FCA653" opacity="0.8"/>

    <g transform="translate(1341.9 265.3)">
      <circle r="22.4" fill="none" stroke="#FCA653" stroke-width="2.24" opacity="0.9"/>
      <path d="M 0 -16.0 L 6.4 0 L 0 16.0 L -6.4 0 Z" fill="#FCA653"/>
    </g>
  </g>
</svg>
