<svg xmlns="http://www.w3.org/2000/svg" viewBox="0 0 1600 1000" width="1600" height="1000" preserveAspectRatio="xMidYMid slice">
  <g>

    <path d="M 1369.0 -40.0 L 1370.9 -32.0 L 1372.7 -24.0 L 1374.4 -15.9 L 1376.0 -7.8 L 1377.6 0.3 L 1379.1 8.4 L 1380.5 16.6 L 1381.8 24.9 L 1383.1 33.1 L 1384.3 41.4 L 1385.4 49.7 L 1386.5 58.1 L 1387.4 66.4 L 1388.4 74.8 L 1389.2 83.3 L 1390.0 91.7 L 1390.7 100.2 L 1391.4 108.7 L 1392.0 117.2 L 1392.5 125.8 L 1393.0 134.4 L 1393.4 143.0 L 1393.8 151.6 L 1394.1 160.2 L 1394.4 168.9 L 1394.6 177.6 L 1394.8 186.3 L 1394.9 195.0 L 1395.0 203.7 L 1395.0 212.5 L 1394.9 221.2 L 1394.9 230.0 L 1394.8 238.8 L 1394.6 247.6 L 1394.4 256.4 L 1394.2 265.3 L 1393.9 274.1 L 1393.6 283.0 L 1393.2 291.8 L 1392.8 300.7 L 1392.4 309.6 L 1392.0 318.5 L 1391.5 327.4 L 1391.0 336.3 L 1390.5 345.2 L 1389.9 354.2 L 1389.3 363.1 L 1388.7 372.0 L 1388.0 381.0 L 1387.4 389.9 L 1386.7 398.9 L 1386.0 407.8 L 1385.3 416.7 L 1384.5 425.7 L 1383.8 434.6 L 1383.0 443.6 L 1382.2 452.5 L 1381.5 461.5 L 1380.6 470.4 L 1379.8 479.3 L 1379.0 488.3 L 1378.2 497.2 L 1377.3 506.1 L 1376.5 515.0 L 1375.7 523.9 L 1374.8 532.8 L 1374.0 541.7 L 1373.1 550.6 L 1372.3 559.4 L 1371.4 568.3 L 1370.6 577.1 L 1369.7 586.0 L 1368.9 594.8 L 1368.1 603.6 L 1367.3 612.4 L 1366.5 621.1 L 1365.7 629.9 L 1364.9 638.7 L 1364.1 647.4 L 1363.4 656.1 L 1362.6 664.8 L 1361.9 673.5 L 1361.2 682.1 L 1360.5 690.7 L 1359.9 699.4 L 1359.2 707.9 L 1358.6 716.5 L 1358.0 725.1 L 1357.5 733.6 L 1356.9 742.1 L 1356.4 750.5 L 1356.0 759.0 L 1355.5 767.4 L 1355.1 775.8 L 1354.7 784.2 L 1354.4 792.5 L 1354.1 800.8 L 1353.8 809.1 L 1353.6 817.3 L 1353.4 825.5 L 1353.2 833.7 L 1353.1 841.9 L 1353.0 850.0 L 1353.0 858.1 L 1353.0 866.1 L 1353.1 874.1 L 1353.2 882.1 L 1353.4 890.0 L 1353.6 897.9 L 1353.9 905.8 L 1354.2 913.6 L 1354.6 921.4 L 1355.0 929.1 L 1355.5 936.9 L 1356.0 944.5 L 1356.6 952.1 L 1357.3 959.7 L 1358.0 967.2 L 1358.8 974.7 L 1359.7 982.2 L 1360.6 989.6 L 1361.6 996.9 L 1362.7 1004.2 L 1363.8 1011.5 L 1365.0 1018.7 L 1366.2 1025.8 L 1367.6 1032.9 L 1369.0 1040.0" fill="none" stroke="#37547E" stroke-width="1" stroke-linecap="round" opacity="0.22" stroke-dasharray="1.5 10"/>
    <path d="M 1278.0 -40.0 L 1279.9 -32.0 L 1281.7 -24.0 L 1283.4 -15.9 L 1285.0 -7.8 L 1286.6 0.3 L 1288.1 8.4 L 1289.5 16.6 L 1290.8 24.9 L 1292.1 33.1 L 1293.3 41.4 L 1294.4 49.7 L 1295.5 58.1 L 1296.4 66.4 L 1297.4 74.8 L 1298.2 83.3 L 1299.0 91.7 L 1299.7 100.2 L 1300.4 108.7 L 1301.0 117.2 L 1301.5 125.8 L 1302.0 134.4 L 1302.4 143.0 L 1302.8 151.6 L 1303.1 160.2 L 1303.4 168.9 L 1303.6 177.6 L 1303.8 186.3 L 1303.9 195.0 L 1304.0 203.7 L 1304.0 212.5 L 1303.9 221.2 L 1303.9 230.0 L 1303.8 238.8 L 1303.6 247.6 L 1303.4 256.4 L 1303.2 265.3 L 1302.9 274.1 L 1302.6 283.0 L 1302.2 291.8 L 1301.8 300.7 L 1301.4 309.6 L 1301.0 318.5 L 1300.5 327.4 L 1300.0 336.3 L 1299.5 345.2 L 1298.9 354.2 L 1298.3 363.1 L 1297.7 372.0 L 1297.0 381.0 L 1296.4 389.9 L 1295.7 398.9 L 1295.0 407.8 L 1294.3 416.7 L 1293.5 425.7 L 1292.8 434.6 L 1292.0 443.6 L 1291.2 452.5 L 1290.5 461.5 L 1289.6 470.4 L 1288.8 479.3 L 1288.0 488.3 L 1287.2 497.2 L 1286.3 506.1 L 1285.5 515.0 L 1284.7 523.9 L 1283.8 532.8 L 1283.0 541.7 L 1282.1 550.6 L 1281.3 559.4 L 1280.4 568.3 L 1279.6 577.1 L 1278.7 586.0 L 1277.9 594.8 L 1277.1 603.6 L 1276.3 612.4 L 1275.5 621.1 L 1274.7 629.9 L 1273.9 638.7 L 1273.1 647.4 L 1272.4 656.1 L 1271.6 664.8 L 1270.9 673.5 L 1270.2 682.1 L 1269.5 690.7 L 1268.9 699.4 L 1268.2 707.9 L 1267.6 716.5 L 1267.0 725.1 L 1266.5 733.6 L 1265.9 742.1 L 1265.4 750.5 L 1265.0 759.0 L 1264.5 767.4 L 1264.1 775.8 L 1263.7 784.2 L 1263.4 792.5 L 1263.1 800.8 L 1262.8 809.1 L 1262.6 817.3 L 1262.4 825.5 L 1262.2 833.7 L 1262.1 841.9 L 1262.0 850.0 L 1262.0 858.1 L 1262.0 866.1 L 1262.1 874.1 L 1262.2 882.1 L 1262.4 890.0 L 1262.6 897.9 L 1262.9 905.8 L 1263.2 913.6 L 1263.6 921.4 L 1264.0 929.1 L 1264.5 936.9 L 1265.0 944.5 L 1265.6 952.1 L 1266.3 959.7 L 1267.0 967.2 L 1267.8 974.7 L 1268.7 982.2 L 1269.6 989.6 L 1270.6 996.9 L 1271.7 1004.2 L 1272.8 1011.5 L 1274.0 1018.7 L 1275.2 1025.8 L 1276.6 1032.9 L 1278.0 1040.0" fill="none" stroke="#37547E" stroke-width="1.1" stroke-linecap="round" opacity="0.3" stroke-dasharray="1.5 9"/>
    <path d="M 1312.0 -40.0 L 1313.9 -32.0 L 1315.7 -24.0 L 1317.4 -15.9 L 1319.0 -7.8 L 1320.6 0.3 L 1322.1 8.4 L 1323.5 16.6 L 1324.8 24.9 L 1326.1 33.1 L 1327.3 41.4 L 1328.4 49.7 L 1329.5 58.1 L 1330.4 66.4 L 1331.4 74.8 L 1332.2 83.3 L 1333.0 91.7 L 1333.7 100.2 L 1334.4 108.7 L 1335.0 117.2 L 1335.5 125.8 L 1336.0 134.4 L 1336.4 143.0 L 1336.8 151.6 L 1337.1 160.2 L 1337.4 168.9 L 1337.6 177.6 L 1337.8 186.3 L 1337.9 195.0 L 1338.0 203.7 L 1338.0 212.5 L 1337.9 221.2 L 1337.9 230.0 L 1337.8 238.8 L 1337.6 247.6 L 1337.4 256.4 L 1337.2 265.3 L 1336.9 274.1 L 1336.6 283.0 L 1336.2 291.8 L 1335.8 300.7 L 1335.4 309.6 L 1335.0 318.5 L 1334.5 327.4 L 1334.0 336.3 L 1333.5 345.2 L 1332.9 354.2 L 1332.3 363.1 L 1331.7 372.0 L 1331.0 381.0 L 1330.4 389.9 L 1329.7 398.9 L 1329.0 407.8 L 1328.3 416.7 L 1327.5 425.7 L 1326.8 434.6 L 1326.0 443.6 L 1325.2 452.5 L 1324.5 461.5 L 1323.6 470.4 L 1322.8 479.3 L 1322.0 488.3 L 1321.2 497.2 L 1320.3 506.1 L 1319.5 515.0 L 1318.7 523.9 L 1317.8 532.8 L 1317.0 541.7 L 1316.1 550.6 L 1315.3 559.4 L 1314.4 568.3 L 1313.6 577.1 L 1312.7 586.0 L 1311.9 594.8 L 1311.1 603.6 L 1310.3 612.4 L 1309.5 621.1 L 1308.7 629.9 L 1307.9 638.7 L 1307.1 647.4 L 1306.4 656.1 L 1305.6 664.8 L 1304.9 673.5 L 1304.2 682.1 L 1303.5 690.7 L 1302.9 699.4 L 1302.2 707.9 L 1301.6 716.5 L 1301.0 725.1 L 1300.5 733.6 L 1299.9 742.1 L 1299.4 750.5 L 1299.0 759.0 L 1298.5 767.4 L 1298.1 775.8 L 1297.7 784.2 L 1297.4 792.5 L 1297.1 800.8 L 1296.8 809.1 L 1296.6 817.3 L 1296.4 825.5 L 1296.2 833.7 L 1296.1 841.9 L 1296.0 850.0 L 1296.0 858.1 L 1296.0 866.1 L 1296.1 874.1 L 1296.2 882.1 L 1296.4 890.0 L 1296.6 897.9 L 1296.9 905.8 L 1297.2 913.6 L 1297.6 921.4 L 1298.0 929.1 L 1298.5 936.9 L 1299.0 944.5 L 1299.6 952.1 L 1300.3 959.7 L 1301.0 967.2 L 1301.8 974.7 L 1302.7 982.2 L 1303.6 989.6 L 1304.6 996.9 L 1305.7 1004.2 L 1306.8 1011.5 L 1308.0 1018.7 L 1309.2 1025.8 L 1310.6 1032.9 L 1312.0 1040.0" fill="none" stroke="#E97C2C" stroke-width="2.6" stroke-linecap="round" stroke-linejoin="round" opacity="0.72"/>

    <circle cx="1324.8" cy="24.9" r="3" fill="#E97C2C" opacity="0.7"/>
    <circle cx="1335.5" cy="125.8" r="3.1" fill="#E97C2C" opacity="0.8"/>
    <circle cx="1336.6" cy="283.0" r="3" fill="#E97C2C" opacity="0.7"/>
    <circle cx="1307.1" cy="647.4" r="3.1" fill="#E97C2C" opacity="0.8"/>
    <circle cx="1299.0" cy="944.5" r="3" fill="#E97C2C" opacity="0.7"/>
    <circle cx="1306.8" cy="1011.5" r="3.1" fill="#E97C2C" opacity="0.8"/>

    <g transform="translate(1337.8 238.8)">
      <circle r="22.4" fill="none" stroke="#37547E" stroke-width="2.24" opacity="0.9"/>
      <path d="M 0 -16.0 L 6.4 0 L 0 16.0 L -6.4 0 Z" fill="#E97C2C"/>
    </g>
  </g>
</svg>
