<svg xmlns="http://www.w3.org/2000/svg" viewBox="0 0 1600 1000" width="1600" height="1000" preserveAspectRatio="xMidYMid slice">
  <g>
    
    <path d="M 1369.0 -40.0 L 1370.5 -35.4 L 1372.3 -30.1 L 1374.4 -24.0 L 1376.8 -17.3 L 1379.4 -10.0 L 1382.1 -2.2 L 1385.1 6.1 L 1388.1 14.7 L 1391.2 23.8 L 1394.3 33.0 L 1397.5 42.6 L 1400.6 52.2 L 1403.7 62.0 L 1406.7 71.8 L 1409.5 81.5 L 1412.2 91.2 L 1414.7 100.7 L 1417.0 110.0 L 1419.2 119.3 L 1421.5 128.8 L 1423.9 138.4 L 1426.3 148.3 L 1428.7 158.2 L 1431.0 168.3 L 1433.4 178.5 L 1435.6 188.8 L 1437.7 199.1 L 1439.6 209.4 L 1441.4 219.7 L 1443.0 230.0 L 1444.3 240.3 L 1445.3 250.4 L 1446.0 260.5 L 1446.4 270.5 L 1446.4 280.3 L 1446.0 290.0 L 1445.3 299.6 L 1444.3 309.1 L 1443.0 318.5 L 1441.5 328.0 L 1439.8 337.3 L 1437.8 346.7 L 1435.5 355.9 L 1433.0 365.2 L 1430.3 374.4 L 1427.3 383.5 L 1424.1 392.6 L 1420.7 401.7 L 1417.0 410.7 L 1413.0 419.6 L 1408.9 428.5 L 1404.5 437.4 L 1399.9 446.2 L 1395.0 455.0 L 1389.7 463.7 L 1383.6 472.2 L 1377.0 480.7 L 1369.9 489.1 L 1362.4 497.3 L 1354.6 505.6 L 1346.5 513.7 L 1338.2 521.9 L 1329.9 530.0 L 1321.7 538.1 L 1313.5 546.3 L 1305.6 554.4 L 1297.9 562.7 L 1290.6 570.9 L 1283.8 579.3 L 1277.5 587.8 L 1271.9 596.3 L 1267.0 605.0 L 1262.6 613.8 L 1258.6 622.7 L 1254.8 631.7 L 1251.3 640.8 L 1248.1 649.9 L 1245.2 659.1 L 1242.6 668.3 L 1240.3 677.6 L 1238.2 686.9 L 1236.5 696.2 L 1235.1 705.5 L 1233.9 714.8 L 1233.0 724.1 L 1232.4 733.4 L 1232.1 742.6 L 1232.1 751.8 L 1232.4 760.9 L 1233.0 770.0 L 1234.0 779.1 L 1235.5 788.3 L 1237.4 797.5 L 1239.7 806.9 L 1242.4 816.2 L 1245.4 825.6 L 1248.8 834.9 L 1252.3 844.2 L 1256.1 853.4 L 1260.1 862.6 L 1264.2 871.6 L 1268.3 880.6 L 1272.6 889.3 L 1276.8 897.9 L 1281.0 906.3 L 1285.1 914.4 L 1289.1 922.4 L 1293.0 930.0 L 1296.9 937.5 L 1301.2 945.0 L 1305.6 952.5 L 1310.3 959.9 L 1315.1 967.2 L 1320.0 974.4 L 1324.9 981.5 L 1329.9 988.4 L 1334.8 995.0 L 1339.6 1001.4 L 1344.2 1007.5 L 1348.7 1013.3 L 1352.9 1018.8 L 1356.9 1023.9 L 1360.5 1028.6 L 1363.8 1032.9 L 1366.6 1036.7 L 1369.0 1040.0" fill="none" stroke="#FCA653" stroke-width="1" stroke-linecap="round" opacity="0.22" stroke-dasharray="1.5 10"/>
    <path d="M 1278.0 -40.0 L 1279.5 -35.4 L 1281.3 -30.1 L 1283.4 -24.0 L 1285.8 -17.3 L 1288.4 -10.0 L 1291.1 -2.2 L 1294.1 6.1 L 1297.1 14.7 L 1300.2 23.8 L 1303.3 33.0 L 1306.5 42.6 L 1309.6 52.2 L 1312.7 62.0 L 1315.7 71.8 L 1318.5 81.5 L 1321.2 91.2 L 1323.7 100.7 L 1326.0 110.0 L 1328.2 119.3 L 1330.5 128.8 L 1332.9 138.4 L 1335.3 148.3 L 1337.7 158.2 L 1340.0 168.3 L 1342.4 178.5 L 1344.6 188.8 L 1346.7 199.1 L 1348.6 209.4 L 1350.4 219.7 L 1352.0 230.0 L 1353.3 240.3 L 1354.3 250.4 L 1355.0 260.5 L 1355.4 270.5 L 1355.4 280.3 L 1355.0 290.0 L 1354.3 299.6 L 1353.3 309.1 L 1352.0 318.5 L 1350.5 328.0 L 1348.8 337.3 L 1346.8 346.7 L 1344.5 355.9 L 1342.0 365.2 L 1339.3 374.4 L 1336.3 383.5 L 1333.1 392.6 L 1329.7 401.7 L 1326.0 410.7 L 1322.0 419.6 L 1317.9 428.5 L 1313.5 437.4 L 1308.9 446.2 L 1304.0 455.0 L 1298.7 463.7 L 1292.6 472.2 L 1286.0 480.7 L 1278.9 489.1 L 1271.4 497.3 L 1263.6 505.6 L 1255.5 513.7 L 1247.2 521.9 L 1238.9 530.0 L 1230.7 538.1 L 1222.5 546.3 L 1214.6 554.4 L 1206.9 562.7 L 1199.6 570.9 L 1192.8 579.3 L 1186.5 587.8 L 1180.9 596.3 L 1176.0 605.0 L 1171.6 613.8 L 1167.6 622.7 L 1163.8 631.7 L 1160.3 640.8 L 1157.1 649.9 L 1154.2 659.1 L 1151.6 668.3 L 1149.3 677.6 L 1147.2 686.9 L 1145.5 696.2 L 1144.1 705.5 L 1142.9 714.8 L 1142.0 724.1 L 1141.4 733.4 L 1141.1 742.6 L 1141.1 751.8 L 1141.4 760.9 L 1142.0 770.0 L 1143.0 779.1 L 1144.5 788.3 L 1146.4 797.5 L 1148.7 806.9 L 1151.4 816.2 L 1154.4 825.6 L 1157.8 834.9 L 1161.3 844.2 L 1165.1 853.4 L 1169.1 862.6 L 1173.2 871.6 L 1177.3 880.6 L 1181.6 889.3 L 1185.8 897.9 L 1190.0 906.3 L 1194.1 914.4 L 1198.1 922.4 L 1202.0 930.0 L 1205.9 937.5 L 1210.2 945.0 L 1214.6 952.5 L 1219.3 959.9 L 1224.1 967.2 L 1229.0 974.4 L 1233.9 981.5 L 1238.9 988.4 L 1243.8 995.0 L 1248.6 1001.4 L 1253.2 1007.5 L 1257.7 1013.3 L 1261.9 1018.8 L 1265.9 1023.9 L 1269.5 1028.6 L 1272.8 1032.9 L 1275.6 1036.7 L 1278.0 1040.0" fill="none" stroke="#FCA653" stroke-width="1.1" stroke-linecap="round" opacity="0.26" stroke-dasharray="1.5 9"/>
    <path d="M 1312.0 -40.0 L 1313.5 -35.4 L 1315.3 -30.1 L 1317.4 -24.0 L 1319.8 -17.3 L 1322.4 -10.0 L 1325.1 -2.2 L 1328.1 6.1 L 1331.1 14.7 L 1334.2 23.8 L 1337.3 33.0 L 1340.5 42.6 L 1343.6 52.2 L 1346.7 62.0 L 1349.7 71.8 L 1352.5 81.5 L 1355.2 91.2 L 1357.7 100.7 L 1360.0 110.0 L 1362.2 119.3 L 1364.5 128.8 L 1366.9 138.4 L 1369.3 148.3 L 1371.7 158.2 L 1374.0 168.3 L 1376.4 178.5 L 1378.6 188.8 L 1380.7 199.1 L 1382.6 209.4 L 1384.4 219.7 L 1386.0 230.0 L 1387.3 240.3 L 1388.3 250.4 L 1389.0 260.5 L 1389.4 270.5 L 1389.4 280.3 L 1389.0 290.0 L 1388.3 299.6 L 1387.3 309.1 L 1386.0 318.5 L 1384.5 328.0 L 1382.8 337.3 L 1380.8 346.7 L 1378.5 355.9 L 1376.0 365.2 L 1373.3 374.4 L 1370.3 383.5 L 1367.1 392.6 L 1363.7 401.7 L 1360.0 410.7 L 1356.0 419.6 L 1351.9 428.5 L 1347.5 437.4 L 1342.9 446.2 L 1338.0 455.0 L 1332.7 463.7 L 1326.6 472.2 L 1320.0 480.7 L 1312.9 489.1 L 1305.4 497.3 L 1297.6 505.6 L 1289.5 513.7 L 1281.2 521.9 L 1272.9 530.0 L 1264.7 538.1 L 1256.5 546.3 L 1248.6 554.4 L 1240.9 562.7 L 1233.6 570.9 L 1226.8 579.3 L 1220.5 587.8 L 1214.9 596.3 L 1210.0 605.0 L 1205.6 613.8 L 1201.6 622.7 L 1197.8 631.7 L 1194.3 640.8 L 1191.1 649.9 L 1188.2 659.1 L 1185.6 668.3 L 1183.3 677.6 L 1181.2 686.9 L 1179.5 696.2 L 1178.1 705.5 L 1176.9 714.8 L 1176.0 724.1 L 1175.4 733.4 L 1175.1 742.6 L 1175.1 751.8 L 1175.4 760.9 L 1176.0 770.0 L 1177.0 779.1 L 1178.5 788.3 L 1180.4 797.5 L 1182.7 806.9 L 1185.4 816.2 L 1188.4 825.6 L 1191.8 834.9 L 1195.3 844.2 L 1199.1 853.4 L 1203.1 862.6 L 1207.2 871.6 L 1211.3 880.6 L 1215.6 889.3 L 1219.8 897.9 L 1224.0 906.3 L 1228.1 914.4 L 1232.1 922.4 L 1236.0 930.0 L 1239.9 937.5 L 1244.2 945.0 L 1248.6 952.5 L 1253.3 959.9 L 1258.1 967.2 L 1263.0 974.4 L 1267.9 981.5 L 1272.9 988.4 L 1277.8 995.0 L 1282.6 1001.4 L 1287.2 1007.5 L 1291.7 1013.3 L 1295.9 1018.8 L 1299.9 1023.9 L 1303.5 1028.6 L 1306.8 1032.9 L 1309.6 1036.7 L 1312.0 1040.0" fill="none" stroke="#FCA653" stroke-width="2.6" stroke-linecap="round" stroke-linejoin="round" opacity="0.8"/>
    
    <circle cx="1328.1" cy="6.1" r="3" fill="#FCA653" opacity="0.7"/>
    <circle cx="1362.2" cy="119.3" r="3.1" fill="#FCA653" opacity="0.8"/>
    <circle cx="1388.3" cy="299.6" r="3" fill="#FCA653" opacity="0.7"/>
    <circle cx="1179.5" cy="696.2" r="3.1" fill="#FCA653" opacity="0.8"/>
    <circle cx="1244.2" cy="945.0" r="3" fill="#FCA653" opacity="0.7"/>
    <circle cx="1277.8" cy="995.0" r="3.1" fill="#FCA653" opacity="0.8"/>
    
    <g transform="translate(1389.4 270.5)">
      <circle r="22.4" fill="none" stroke="#FCA653" stroke-width="2.24" opacity="0.9"/>
      <path d="M 0.0 -17.6 L 4.5 -6.2 L 16.7 -5.4 L 7.3 2.4 L 10.3 14.2 L 0.0 7.7 L -10.3 14.2 L -7.3 2.4 L -16.7 -5.4 L -4.5 -6.2 Z" fill="#FCA653"/>
    </g>
  </g>
</svg>
