<svg xmlns="http://www.w3.org/2000/svg" viewBox="0 0 1600 1000" width="1600" height="1000" preserveAspectRatio="xMidYMid slice">
  <g>

    <path d="M 1369.0 -40.0 L 1365.6 -32.0 L 1362.3 -24.0 L 1359.1 -15.9 L 1356.1 -7.8 L 1353.3 0.3 L 1350.6 8.4 L 1348.0 16.6 L 1345.6 24.9 L 1343.3 33.1 L 1341.1 41.4 L 1339.1 49.7 L 1337.2 58.1 L 1335.4 66.4 L 1333.8 74.8 L 1332.3 83.3 L 1330.9 91.7 L 1329.6 100.2 L 1328.4 108.7 L 1327.3 117.2 L 1326.4 125.8 L 1325.5 134.4 L 1324.8 143.0 L 1324.1 151.6 L 1323.6 160.2 L 1323.1 168.9 L 1322.8 177.6 L 1322.5 186.3 L 1322.4 195.0 L 1322.3 203.7 L 1322.3 212.5 L 1322.4 221.2 L 1322.6 230.0 L 1322.9 238.8 L 1323.2 247.6 L 1323.6 256.4 L 1324.1 265.3 L 1324.6 274.1 L 1325.3 283.0 L 1326.0 291.8 L 1326.7 300.7 L 1327.5 309.6 L 1328.4 318.5 L 1329.3 327.4 L 1330.3 336.3 L 1331.3 345.2 L 1332.4 354.2 L 1333.5 363.1 L 1334.7 372.0 L 1335.9 381.0 L 1337.2 389.9 L 1338.5 398.9 L 1339.8 407.8 L 1341.2 416.7 L 1342.6 425.7 L 1344.0 434.6 L 1345.5 443.6 L 1346.9 452.5 L 1348.4 461.5 L 1350.0 470.4 L 1351.5 479.3 L 1353.0 488.3 L 1354.6 497.2 L 1356.2 506.1 L 1357.8 515.0 L 1359.3 523.9 L 1360.9 532.8 L 1362.5 541.7 L 1364.1 550.6 L 1365.7 559.4 L 1367.3 568.3 L 1368.8 577.1 L 1370.4 586.0 L 1371.9 594.8 L 1373.5 603.6 L 1375.0 612.4 L 1376.5 621.1 L 1377.9 629.9 L 1379.4 638.7 L 1380.8 647.4 L 1382.2 656.1 L 1383.5 664.8 L 1384.9 673.5 L 1386.2 682.1 L 1387.4 690.7 L 1388.6 699.4 L 1389.8 707.9 L 1390.9 716.5 L 1392.0 725.1 L 1393.0 733.6 L 1394.0 742.1 L 1394.9 750.5 L 1395.7 759.0 L 1396.5 767.4 L 1397.3 775.8 L 1397.9 784.2 L 1398.5 792.5 L 1399.1 800.8 L 1399.5 809.1 L 1399.9 817.3 L 1400.2 825.5 L 1400.5 833.7 L 1400.6 841.9 L 1400.7 850.0 L 1400.7 858.1 L 1400.6 866.1 L 1400.4 874.1 L 1400.1 882.1 L 1399.8 890.0 L 1399.3 897.9 L 1398.7 905.8 L 1398.1 913.6 L 1397.3 921.4 L 1396.4 929.1 L 1395.4 936.9 L 1394.3 944.5 L 1393.1 952.1 L 1391.8 959.7 L 1390.4 967.2 L 1388.8 974.7 L 1387.1 982.2 L 1385.3 989.6 L 1383.4 996.9 L 1381.3 1004.2 L 1379.1 1011.5 L 1376.8 1018.7 L 1374.3 1025.8 L 1371.7 1032.9 L 1369.0 1040.0" fill="none" stroke="#37547E" stroke-width="1" stroke-linecap="round" opacity="0.22" stroke-dasharray="1.5 10"/>
    <path d="M 1278.0 -40.0 L 1274.6 -32.0 L 1271.3 -24.0 L 1268.1 -15.9 L 1265.1 -7.8 L 1262.3 0.3 L 1259.6 8.4 L 1257.0 16.6 L 1254.6 24.9 L 1252.3 33.1 L 1250.1 41.4 L 1248.1 49.7 L 1246.2 58.1 L 1244.4 66.4 L 1242.8 74.8 L 1241.3 83.3 L 1239.9 91.7 L 1238.6 100.2 L 1237.4 108.7 L 1236.3 117.2 L 1235.4 125.8 L 1234.5 134.4 L 1233.8 143.0 L 1233.1 151.6 L 1232.6 160.2 L 1232.1 168.9 L 1231.8 177.6 L 1231.5 186.3 L 1231.4 195.0 L 1231.3 203.7 L 1231.3 212.5 L 1231.4 221.2 L 1231.6 230.0 L 1231.9 238.8 L 1232.2 247.6 L 1232.6 256.4 L 1233.1 265.3 L 1233.6 274.1 L 1234.3 283.0 L 1235.0 291.8 L 1235.7 300.7 L 1236.5 309.6 L 1237.4 318.5 L 1238.3 327.4 L 1239.3 336.3 L 1240.3 345.2 L 1241.4 354.2 L 1242.5 363.1 L 1243.7 372.0 L 1244.9 381.0 L 1246.2 389.9 L 1247.5 398.9 L 1248.8 407.8 L 1250.2 416.7 L 1251.6 425.7 L 1253.0 434.6 L 1254.5 443.6 L 1255.9 452.5 L 1257.4 461.5 L 1259.0 470.4 L 1260.5 479.3 L 1262.0 488.3 L 1263.6 497.2 L 1265.2 506.1 L 1266.8 515.0 L 1268.3 523.9 L 1269.9 532.8 L 1271.5 541.7 L 1273.1 550.6 L 1274.7 559.4 L 1276.3 568.3 L 1277.8 577.1 L 1279.4 586.0 L 1280.9 594.8 L 1282.5 603.6 L 1284.0 612.4 L 1285.5 621.1 L 1286.9 629.9 L 1288.4 638.7 L 1289.8 647.4 L 1291.2 656.1 L 1292.5 664.8 L 1293.9 673.5 L 1295.2 682.1 L 1296.4 690.7 L 1297.6 699.4 L 1298.8 707.9 L 1299.9 716.5 L 1301.0 725.1 L 1302.0 733.6 L 1303.0 742.1 L 1303.9 750.5 L 1304.7 759.0 L 1305.5 767.4 L 1306.3 775.8 L 1306.9 784.2 L 1307.5 792.5 L 1308.1 800.8 L 1308.5 809.1 L 1308.9 817.3 L 1309.2 825.5 L 1309.5 833.7 L 1309.6 841.9 L 1309.7 850.0 L 1309.7 858.1 L 1309.6 866.1 L 1309.4 874.1 L 1309.1 882.1 L 1308.8 890.0 L 1308.3 897.9 L 1307.7 905.8 L 1307.1 913.6 L 1306.3 921.4 L 1305.4 929.1 L 1304.4 936.9 L 1303.3 944.5 L 1302.1 952.1 L 1300.8 959.7 L 1299.4 967.2 L 1297.8 974.7 L 1296.1 982.2 L 1294.3 989.6 L 1292.4 996.9 L 1290.3 1004.2 L 1288.1 1011.5 L 1285.8 1018.7 L 1283.3 1025.8 L 1280.7 1032.9 L 1278.0 1040.0" fill="none" stroke="#37547E" stroke-width="1.1" stroke-linecap="round" opacity="0.3" stroke-dasharray="1.5 9"/>
    <path d="M 1312.0 -40.0 L 1308.6 -32.0 L 1305.3 -24.0 L 1302.1 -15.9 L 1299.1 -7.8 L 1296.3 0.3 L 1293.6 8.4 L 1291.0 16.6 L 1288.6 24.9 L 1286.3 33.1 L 1284.1 41.4 L 1282.1 49.7 L 1280.2 58.1 L 1278.4 66.4 L 1276.8 74.8 L 1275.3 83.3 L 1273.9 91.7 L 1272.6 100.2 L 1271.4 108.7 L 1270.3 117.2 L 1269.4 125.8 L 1268.5 134.4 L 1267.8 143.0 L 1267.1 151.6 L 1266.6 160.2 L 1266.1 168.9 L 1265.8 177.6 L 1265.5 186.3 L 1265.4 195.0 L 1265.3 203.7 L 1265.3 212.5 L 1265.4 221.2 L 1265.6 230.0 L 1265.9 238.8 L 1266.2 247.6 L 1266.6 256.4 L 1267.1 265.3 L 1267.6 274.1 L 1268.3 283.0 L 1269.0 291.8 L 1269.7 300.7 L 1270.5 309.6 L 1271.4 318.5 L 1272.3 327.4 L 1273.3 336.3 L 1274.3 345.2 L 1275.4 354.2 L 1276.5 363.1 L 1277.7 372.0 L 1278.9 381.0 L 1280.2 389.9 L 1281.5 398.9 L 1282.8 407.8 L 1284.2 416.7 L 1285.6 425.7 L 1287.0 434.6 L 1288.5 443.6 L 1289.9 452.5 L 1291.4 461.5 L 1293.0 470.4 L 1294.5 479.3 L 1296.0 488.3 L 1297.6 497.2 L 1299.2 506.1 L 1300.8 515.0 L 1302.3 523.9 L 1303.9 532.8 L 1305.5 541.7 L 1307.1 550.6 L 1308.7 559.4 L 1310.3 568.3 L 1311.8 577.1 L 1313.4 586.0 L 1314.9 594.8 L 1316.5 603.6 L 1318.0 612.4 L 1319.5 621.1 L 1320.9 629.9 L 1322.4 638.7 L 1323.8 647.4 L 1325.2 656.1 L 1326.5 664.8 L 1327.9 673.5 L 1329.2 682.1 L 1330.4 690.7 L 1331.6 699.4 L 1332.8 707.9 L 1333.9 716.5 L 1335.0 725.1 L 1336.0 733.6 L 1337.0 742.1 L 1337.9 750.5 L 1338.7 759.0 L 1339.5 767.4 L 1340.3 775.8 L 1340.9 784.2 L 1341.5 792.5 L 1342.1 800.8 L 1342.5 809.1 L 1342.9 817.3 L 1343.2 825.5 L 1343.5 833.7 L 1343.6 841.9 L 1343.7 850.0 L 1343.7 858.1 L 1343.6 866.1 L 1343.4 874.1 L 1343.1 882.1 L 1342.8 890.0 L 1342.3 897.9 L 1341.7 905.8 L 1341.1 913.6 L 1340.3 921.4 L 1339.4 929.1 L 1338.4 936.9 L 1337.3 944.5 L 1336.1 952.1 L 1334.8 959.7 L 1333.4 967.2 L 1331.8 974.7 L 1330.1 982.2 L 1328.3 989.6 L 1326.4 996.9 L 1324.3 1004.2 L 1322.1 1011.5 L 1319.8 1018.7 L 1317.3 1025.8 L 1314.7 1032.9 L 1312.0 1040.0" fill="none" stroke="#E97C2C" stroke-width="2.6" stroke-linecap="round" stroke-linejoin="round" opacity="0.72"/>

    <circle cx="1288.6" cy="24.9" r="3" fill="#E97C2C" opacity="0.7"/>
    <circle cx="1269.4" cy="125.8" r="3.1" fill="#E97C2C" opacity="0.8"/>
    <circle cx="1268.3" cy="283.0" r="3" fill="#E97C2C" opacity="0.7"/>
    <circle cx="1323.8" cy="647.4" r="3.1" fill="#E97C2C" opacity="0.8"/>
    <circle cx="1337.3" cy="944.5" r="3" fill="#E97C2C" opacity="0.7"/>
    <circle cx="1322.1" cy="1011.5" r="3.1" fill="#E97C2C" opacity="0.8"/>

    <g transform="translate(1273.3 336.3)">
      <circle r="22.4" fill="none" stroke="#37547E" stroke-width="2.24" opacity="0.9"/>
      <path d="M 0 -16.0 L 6.4 0 L 0 16.0 L -6.4 0 Z" fill="#E97C2C"/>
    </g>
  </g>
</svg>
