<svg xmlns="http://www.w3.org/2000/svg" viewBox="0 0 1600 1000" width="1600" height="1000" preserveAspectRatio="xMidYMid slice">
  <g>

    <path d="M 1369.0 -40.0 L 1373.1 -32.0 L 1377.1 -24.0 L 1380.9 -15.9 L 1384.6 -7.8 L 1388.1 0.3 L 1391.4 8.4 L 1394.6 16.6 L 1397.6 24.9 L 1400.5 33.1 L 1403.2 41.4 L 1405.8 49.7 L 1408.3 58.1 L 1410.6 66.4 L 1412.8 74.8 L 1414.8 83.3 L 1416.7 91.7 L 1418.5 100.2 L 1420.2 108.7 L 1421.7 117.2 L 1423.1 125.8 L 1424.4 134.4 L 1425.6 143.0 L 1426.7 151.6 L 1427.6 160.2 L 1428.5 168.9 L 1429.2 177.6 L 1429.8 186.3 L 1430.3 195.0 L 1430.8 203.7 L 1431.1 212.5 L 1431.3 221.2 L 1431.4 230.0 L 1431.5 238.8 L 1431.4 247.6 L 1431.3 256.4 L 1431.1 265.3 L 1430.8 274.1 L 1430.4 283.0 L 1430.0 291.8 L 1429.4 300.7 L 1428.8 309.6 L 1428.2 318.5 L 1427.4 327.4 L 1426.6 336.3 L 1425.7 345.2 L 1424.8 354.2 L 1423.8 363.1 L 1422.8 372.0 L 1421.7 381.0 L 1420.5 389.9 L 1419.4 398.9 L 1418.1 407.8 L 1416.8 416.7 L 1415.5 425.7 L 1414.1 434.6 L 1412.7 443.6 L 1411.3 452.5 L 1409.8 461.5 L 1408.3 470.4 L 1406.8 479.3 L 1405.3 488.3 L 1403.7 497.2 L 1402.1 506.1 L 1400.5 515.0 L 1398.9 523.9 L 1397.2 532.8 L 1395.6 541.7 L 1393.9 550.6 L 1392.3 559.4 L 1390.6 568.3 L 1388.9 577.1 L 1387.3 586.0 L 1385.6 594.8 L 1384.0 603.6 L 1382.3 612.4 L 1380.7 621.1 L 1379.0 629.9 L 1377.4 638.7 L 1375.8 647.4 L 1374.3 656.1 L 1372.7 664.8 L 1371.2 673.5 L 1369.7 682.1 L 1368.2 690.7 L 1366.8 699.4 L 1365.4 707.9 L 1364.0 716.5 L 1362.7 725.1 L 1361.4 733.6 L 1360.2 742.1 L 1359.0 750.5 L 1357.9 759.0 L 1356.8 767.4 L 1355.7 775.8 L 1354.7 784.2 L 1353.8 792.5 L 1352.9 800.8 L 1352.1 809.1 L 1351.4 817.3 L 1350.7 825.5 L 1350.1 833.7 L 1349.6 841.9 L 1349.2 850.0 L 1348.8 858.1 L 1348.5 866.1 L 1348.3 874.1 L 1348.1 882.1 L 1348.1 890.0 L 1348.1 897.9 L 1348.3 905.8 L 1348.5 913.6 L 1348.8 921.4 L 1349.2 929.1 L 1349.8 936.9 L 1350.4 944.5 L 1351.1 952.1 L 1352.0 959.7 L 1352.9 967.2 L 1354.0 974.7 L 1355.2 982.2 L 1356.5 989.6 L 1357.9 996.9 L 1359.4 1004.2 L 1361.1 1011.5 L 1362.9 1018.7 L 1364.8 1025.8 L 1366.8 1032.9 L 1369.0 1040.0" fill="none" stroke="#37547E" stroke-width="1" stroke-linecap="round" opacity="0.22" stroke-dasharray="1.5 10"/>
    <path d="M 1278.0 -40.0 L 1282.1 -32.0 L 1286.1 -24.0 L 1289.9 -15.9 L 1293.6 -7.8 L 1297.1 0.3 L 1300.4 8.4 L 1303.6 16.6 L 1306.6 24.9 L 1309.5 33.1 L 1312.2 41.4 L 1314.8 49.7 L 1317.3 58.1 L 1319.6 66.4 L 1321.8 74.8 L 1323.8 83.3 L 1325.7 91.7 L 1327.5 100.2 L 1329.2 108.7 L 1330.7 117.2 L 1332.1 125.8 L 1333.4 134.4 L 1334.6 143.0 L 1335.7 151.6 L 1336.6 160.2 L 1337.5 168.9 L 1338.2 177.6 L 1338.8 186.3 L 1339.3 195.0 L 1339.8 203.7 L 1340.1 212.5 L 1340.3 221.2 L 1340.4 230.0 L 1340.5 238.8 L 1340.4 247.6 L 1340.3 256.4 L 1340.1 265.3 L 1339.8 274.1 L 1339.4 283.0 L 1339.0 291.8 L 1338.4 300.7 L 1337.8 309.6 L 1337.2 318.5 L 1336.4 327.4 L 1335.6 336.3 L 1334.7 345.2 L 1333.8 354.2 L 1332.8 363.1 L 1331.8 372.0 L 1330.7 381.0 L 1329.5 389.9 L 1328.4 398.9 L 1327.1 407.8 L 1325.8 416.7 L 1324.5 425.7 L 1323.1 434.6 L 1321.7 443.6 L 1320.3 452.5 L 1318.8 461.5 L 1317.3 470.4 L 1315.8 479.3 L 1314.3 488.3 L 1312.7 497.2 L 1311.1 506.1 L 1309.5 515.0 L 1307.9 523.9 L 1306.2 532.8 L 1304.6 541.7 L 1302.9 550.6 L 1301.3 559.4 L 1299.6 568.3 L 1297.9 577.1 L 1296.3 586.0 L 1294.6 594.8 L 1293.0 603.6 L 1291.3 612.4 L 1289.7 621.1 L 1288.0 629.9 L 1286.4 638.7 L 1284.8 647.4 L 1283.3 656.1 L 1281.7 664.8 L 1280.2 673.5 L 1278.7 682.1 L 1277.2 690.7 L 1275.8 699.4 L 1274.4 707.9 L 1273.0 716.5 L 1271.7 725.1 L 1270.4 733.6 L 1269.2 742.1 L 1268.0 750.5 L 1266.9 759.0 L 1265.8 767.4 L 1264.7 775.8 L 1263.7 784.2 L 1262.8 792.5 L 1261.9 800.8 L 1261.1 809.1 L 1260.4 817.3 L 1259.7 825.5 L 1259.1 833.7 L 1258.6 841.9 L 1258.2 850.0 L 1257.8 858.1 L 1257.5 866.1 L 1257.3 874.1 L 1257.1 882.1 L 1257.1 890.0 L 1257.1 897.9 L 1257.3 905.8 L 1257.5 913.6 L 1257.8 921.4 L 1258.2 929.1 L 1258.8 936.9 L 1259.4 944.5 L 1260.1 952.1 L 1261.0 959.7 L 1261.9 967.2 L 1263.0 974.7 L 1264.2 982.2 L 1265.5 989.6 L 1266.9 996.9 L 1268.4 1004.2 L 1270.1 1011.5 L 1271.9 1018.7 L 1273.8 1025.8 L 1275.8 1032.9 L 1278.0 1040.0" fill="none" stroke="#37547E" stroke-width="1.1" stroke-linecap="round" opacity="0.3" stroke-dasharray="1.5 9"/>
    <path d="M 1312.0 -40.0 L 1316.1 -32.0 L 1320.1 -24.0 L 1323.9 -15.9 L 1327.6 -7.8 L 1331.1 0.3 L 1334.4 8.4 L 1337.6 16.6 L 1340.6 24.9 L 1343.5 33.1 L 1346.2 41.4 L 1348.8 49.7 L 1351.3 58.1 L 1353.6 66.4 L 1355.8 74.8 L 1357.8 83.3 L 1359.7 91.7 L 1361.5 100.2 L 1363.2 108.7 L 1364.7 117.2 L 1366.1 125.8 L 1367.4 134.4 L 1368.6 143.0 L 1369.7 151.6 L 1370.6 160.2 L 1371.5 168.9 L 1372.2 177.6 L 1372.8 186.3 L 1373.3 195.0 L 1373.8 203.7 L 1374.1 212.5 L 1374.3 221.2 L 1374.4 230.0 L 1374.5 238.8 L 1374.4 247.6 L 1374.3 256.4 L 1374.1 265.3 L 1373.8 274.1 L 1373.4 283.0 L 1373.0 291.8 L 1372.4 300.7 L 1371.8 309.6 L 1371.2 318.5 L 1370.4 327.4 L 1369.6 336.3 L 1368.7 345.2 L 1367.8 354.2 L 1366.8 363.1 L 1365.8 372.0 L 1364.7 381.0 L 1363.5 389.9 L 1362.4 398.9 L 1361.1 407.8 L 1359.8 416.7 L 1358.5 425.7 L 1357.1 434.6 L 1355.7 443.6 L 1354.3 452.5 L 1352.8 461.5 L 1351.3 470.4 L 1349.8 479.3 L 1348.3 488.3 L 1346.7 497.2 L 1345.1 506.1 L 1343.5 515.0 L 1341.9 523.9 L 1340.2 532.8 L 1338.6 541.7 L 1336.9 550.6 L 1335.3 559.4 L 1333.6 568.3 L 1331.9 577.1 L 1330.3 586.0 L 1328.6 594.8 L 1327.0 603.6 L 1325.3 612.4 L 1323.7 621.1 L 1322.0 629.9 L 1320.4 638.7 L 1318.8 647.4 L 1317.3 656.1 L 1315.7 664.8 L 1314.2 673.5 L 1312.7 682.1 L 1311.2 690.7 L 1309.8 699.4 L 1308.4 707.9 L 1307.0 716.5 L 1305.7 725.1 L 1304.4 733.6 L 1303.2 742.1 L 1302.0 750.5 L 1300.9 759.0 L 1299.8 767.4 L 1298.7 775.8 L 1297.7 784.2 L 1296.8 792.5 L 1295.9 800.8 L 1295.1 809.1 L 1294.4 817.3 L 1293.7 825.5 L 1293.1 833.7 L 1292.6 841.9 L 1292.2 850.0 L 1291.8 858.1 L 1291.5 866.1 L 1291.3 874.1 L 1291.1 882.1 L 1291.1 890.0 L 1291.1 897.9 L 1291.3 905.8 L 1291.5 913.6 L 1291.8 921.4 L 1292.2 929.1 L 1292.8 936.9 L 1293.4 944.5 L 1294.1 952.1 L 1295.0 959.7 L 1295.9 967.2 L 1297.0 974.7 L 1298.2 982.2 L 1299.5 989.6 L 1300.9 996.9 L 1302.4 1004.2 L 1304.1 1011.5 L 1305.9 1018.7 L 1307.8 1025.8 L 1309.8 1032.9 L 1312.0 1040.0" fill="none" stroke="#E97C2C" stroke-width="2.6" stroke-linecap="round" stroke-linejoin="round" opacity="0.72"/>

    <circle cx="1340.6" cy="24.9" r="3" fill="#E97C2C" opacity="0.7"/>
    <circle cx="1366.1" cy="125.8" r="3.1" fill="#E97C2C" opacity="0.8"/>
    <circle cx="1373.4" cy="283.0" r="3" fill="#E97C2C" opacity="0.7"/>
    <circle cx="1318.8" cy="647.4" r="3.1" fill="#E97C2C" opacity="0.8"/>
    <circle cx="1293.4" cy="944.5" r="3" fill="#E97C2C" opacity="0.7"/>
    <circle cx="1304.1" cy="1011.5" r="3.1" fill="#E97C2C" opacity="0.8"/>

    <g transform="translate(1373.4 283.0)">
      <circle r="22.4" fill="none" stroke="#37547E" stroke-width="2.24" opacity="0.9"/>
      <path d="M 0 -16.0 L 6.4 0 L 0 16.0 L -6.4 0 Z" fill="#E97C2C"/>
    </g>
  </g>
</svg>
